<svg width="192" height="181" viewBox="0 0 192 181" fill="none" xmlns="http://www.w3.org/2000/svg">
<rect x="44" y="28" width="43" height="69" fill="#E5E8EF"/>
<rect x="22" y="28" width="22" height="69" fill="#CDD4DF"/>
<path d="M33 6L44 28H22L33 6Z" fill="#CF874B"/>
<path d="M33 6H76.2L87 28H43.8L33 6Z" fill="#FE9844"/>
<path d="M33 5C33 2.23858 35.2386 0 38 0H71C73.7614 0 76 2.23858 76 5V6H33V5Z" fill="#CF874B"/>
<path d="M22 69.5L25.6404 69.0239C30.8273 68.3455 35.8756 66.8574 40.6011 64.6138L44 63V97H22V69.5Z" fill="#CF874B"/>
<path d="M44 63L55.7378 67.1921C61.854 69.3764 68.3372 70.3483 74.825 70.0534L87 69.5V97H44V63Z" fill="#FE9844"/>
<path d="M81.3477 19.0016C81.3477 13.4791 85.8243 9.00203 91.3469 9.00159L101.577 9.00079C107.1 9.00035 111.578 13.4776 111.578 19.0008V32.0081C111.578 33.4844 111.905 34.9423 112.535 36.2773L121.586 55.4477C122.846 58.1177 123.5 61.0336 123.5 63.9862V100.002C123.5 105.525 119.023 110.002 113.5 110.002H79C73.4772 110.002 69 105.525 69 100.002V64.1307C69 61.0854 69.6954 58.0803 71.0332 55.3446L80.331 36.3313C80.9999 34.9634 81.3477 33.4609 81.3477 31.9382V19.0016Z" fill="#FFAC69"/>
<rect x="79" y="9" width="35" height="11" rx="5.5" fill="#FF7809"/>
<rect x="95" y="9" width="19" height="11" rx="5.5" fill="white" fill-opacity="0.2"/>
<path d="M86 74C86 68.4772 90.4772 64 96 64C101.523 64 106 68.4772 106 74V110H86V74Z" fill="#E5E5E5"/>
<mask id="mask0_2912_447" style="mask-type:alpha" maskUnits="userSpaceOnUse" x="69" y="9" width="55" height="102">
<path d="M81.3477 19.0016C81.3477 13.4791 85.8243 9.00203 91.3469 9.00159L101.577 9.00079C107.1 9.00035 111.578 13.4776 111.578 19.0008V32.0081C111.578 33.4844 111.905 34.9423 112.535 36.2773L121.586 55.4477C122.846 58.1177 123.5 61.0336 123.5 63.9862V100.002C123.5 105.525 119.023 110.002 113.5 110.002H79C73.4772 110.002 69 105.525 69 100.002V64.1307C69 61.0854 69.6954 58.0803 71.0332 55.3446L80.331 36.3313C80.9999 34.9634 81.3477 33.4609 81.3477 31.9382V19.0016Z" fill="#FFAC69"/>
<rect x="79" y="9" width="35" height="11" rx="5.5" fill="#FF7809"/>
<path d="M86 74C86 68.4772 90.4772 64 96 64C101.523 64 106 68.4772 106 74V110H86V74Z" fill="#E5E5E5"/>
</mask>
<g mask="url(#mask0_2912_447)">
<ellipse cx="119.5" cy="95" rx="25.5" ry="54" fill="white" fill-opacity="0.2"/>
</g>
<rect x="114" y="47" width="53" height="50" rx="10" fill="#FF9239"/>
<rect x="124" y="40" width="33" height="7" fill="#DF843A"/>
<rect x="119" y="30" width="43" height="10" rx="5" fill="#CDD4DF"/>
<rect x="138" y="30" width="24" height="10" rx="5" fill="#E5E8EF"/>
<rect x="148" y="47" width="19" height="50" rx="9.5" fill="white" fill-opacity="0.2"/>
<path d="M15 92C15 89.2386 17.2386 87 20 87H114V181H30C21.7157 181 15 174.284 15 166V92Z" fill="#D0CECE"/>
<path d="M96 87H173C175.761 87 178 89.2386 178 92V166C178 174.284 171.284 181 163 181H111C102.716 181 96 174.284 96 166V87Z" fill="#E5E5E5"/>
<path d="M13.5345 89.8344C14.3671 88.1019 16.119 87 18.0412 87H96L83.8275 112.331C82.1624 115.796 78.6585 118 74.8141 118H15.9C8.53459 118 3.69652 110.307 6.88664 103.669L13.5345 89.8344Z" fill="#E5E5E5"/>
<rect x="38.6914" y="153.051" width="24.8021" height="8.92875" rx="4.46438" fill="#B7B7B7"/>
<rect x="131.946" y="153.051" width="24.8021" height="8.92875" rx="4.46438" fill="#B7B7B7"/>
<path d="M178.465 89.8344C177.633 88.1019 175.881 87 173.959 87H96L108.173 112.331C109.838 115.796 113.342 118 117.186 118H176.1C183.465 118 188.303 110.307 185.113 103.669L178.465 89.8344Z" fill="#D0CECE"/>
</svg>
