<svg width="181" height="180" viewBox="0 0 181 180" fill="none" xmlns="http://www.w3.org/2000/svg">
<path d="M131.276 63.0069C131.682 63.2147 132.153 63.2576 132.59 63.1267C133.027 62.9957 133.396 62.701 133.621 62.3041L141.908 47.6565C142.025 47.449 142.099 47.2199 142.126 46.983C142.152 46.7461 142.131 46.5063 142.062 46.278C141.994 46.0496 141.88 45.8375 141.727 45.6543C141.575 45.4711 141.387 45.3207 141.175 45.212L139.927 44.5735C139.715 44.4649 139.483 44.4003 139.246 44.3836C139.008 44.3669 138.769 44.3984 138.544 44.4762C138.319 44.5541 138.112 44.6767 137.935 44.8366C137.758 44.9966 137.616 45.1906 137.516 45.407L130.477 60.6932C130.286 61.1076 130.262 61.5797 130.411 62.0109C130.56 62.4421 130.87 62.7989 131.276 63.0069Z" fill="#FE9844"/>
<path d="M119.457 58.1728C119.842 58.2459 120.241 58.1673 120.569 57.9534C120.898 57.7395 121.132 57.4069 121.221 57.025L124.509 42.9319C124.556 42.7323 124.562 42.5253 124.526 42.3234C124.491 42.1215 124.415 41.9288 124.303 41.757C124.191 41.5852 124.046 41.4378 123.876 41.3236C123.705 41.2094 123.514 41.1308 123.312 41.0926L122.129 40.868C121.927 40.8297 121.72 40.8326 121.52 40.8764C121.32 40.9202 121.131 41.004 120.964 41.1228C120.797 41.2416 120.656 41.393 120.549 41.5677C120.442 41.7425 120.371 41.9371 120.341 42.1398L118.236 56.4577C118.179 56.8458 118.274 57.241 118.502 57.5606C118.729 57.8803 119.071 58.0996 119.457 58.1728Z" fill="#FE9844"/>
<path d="M138.344 73.6754C139.201 74.8396 141.077 74.935 142.596 73.8915L169.579 55.3633C171.191 54.2564 171.777 52.3047 170.868 51.0699L169.602 49.3489C168.693 48.1139 166.655 48.0928 165.119 49.3025L139.403 69.5515C137.955 70.692 137.488 72.5111 138.344 73.6754Z" fill="#FE9844"/>
<path d="M48.3302 63.8907C47.9242 64.0985 47.4536 64.1414 47.0167 64.0105C46.5798 63.8795 46.2104 63.5848 45.9857 63.1879L37.6989 48.5403C37.5815 48.3328 37.5073 48.1037 37.4807 47.8668C37.4541 47.6299 37.4757 47.3901 37.5442 47.1617C37.6126 46.9334 37.7266 46.7213 37.8791 46.5381C38.0317 46.3549 38.2197 46.2045 38.4319 46.0958L39.6791 45.4573C39.8912 45.3487 40.1231 45.2841 40.3608 45.2674C40.5985 45.2507 40.8372 45.2822 41.0624 45.36C41.2876 45.4379 41.4948 45.5605 41.6714 45.7204C41.8481 45.8804 41.9906 46.0744 42.0904 46.2908L49.13 61.577C49.321 61.9914 49.3444 62.4635 49.1953 62.8947C49.0463 63.3259 48.7363 63.6827 48.3302 63.8907Z" fill="#FE9844"/>
<path d="M60.1499 59.0566C59.7646 59.1297 59.3659 59.0511 59.0371 58.8372C58.7084 58.6233 58.475 58.2907 58.3858 57.9088L55.0971 43.8157C55.0506 43.616 55.0448 43.4091 55.0803 43.2072C55.1158 43.0053 55.1917 42.8126 55.3035 42.6408C55.4153 42.469 55.5607 42.3216 55.7309 42.2074C55.9012 42.0932 56.0928 42.0146 56.2941 41.9764L57.4779 41.7517C57.6792 41.7135 57.8862 41.7164 58.0864 41.7602C58.2866 41.804 58.4758 41.8878 58.6428 42.0066C58.8098 42.1254 58.951 42.2768 59.058 42.4515C59.165 42.6263 59.2356 42.8209 59.2655 43.0236L61.3703 57.3415C61.4275 57.7296 61.3324 58.1248 61.105 58.4444C60.8775 58.7641 60.5353 58.9834 60.1499 59.0566Z" fill="#FE9844"/>
<path d="M41.2622 74.5592C40.4054 75.7234 38.5298 75.8188 37.0102 74.7753L10.0273 56.2471C8.41544 55.1402 7.82936 53.1885 8.73806 51.9537L10.0048 50.2326C10.9134 48.9977 12.9512 48.9766 14.4874 50.1863L40.2037 70.4353C41.652 71.5758 42.1189 73.3948 41.2622 74.5592Z" fill="#FE9844"/>
<path d="M9.11236 90.304C9.11236 87.5426 11.3509 85.304 14.1124 85.304H108.112V179.304H24.1124C15.8281 179.304 9.11236 172.588 9.11236 164.304V90.304Z" fill="#D0CECE"/>
<path d="M90.1124 85.304H167.112C169.874 85.304 172.112 87.5426 172.112 90.304V164.304C172.112 172.588 165.397 179.304 157.112 179.304H105.112C96.8281 179.304 90.1124 172.588 90.1124 164.304V85.304Z" fill="#E5E5E5"/>
<path d="M7.64689 88.1384C8.47942 86.4059 10.2314 85.304 12.1536 85.304H90.1124L77.9398 110.635C76.2748 114.1 72.7708 116.304 68.9265 116.304H10.0123C2.64694 116.304 -2.19112 108.611 0.998993 101.973L7.64689 88.1384Z" fill="#E5E5E5"/>
<path d="M32.8038 155.818C32.8038 153.353 34.8025 151.354 37.2681 151.354H53.1415C55.6071 151.354 57.6058 153.353 57.6058 155.818C57.6058 158.284 55.6071 160.283 53.1415 160.283H37.2681C34.8025 160.283 32.8038 158.284 32.8038 155.818Z" fill="#B7B7B7"/>
<path d="M126.059 155.818C126.059 153.353 128.057 151.354 130.523 151.354H146.396C148.862 151.354 150.861 153.353 150.861 155.818C150.861 158.284 148.862 160.283 146.396 160.283H130.523C128.057 160.283 126.059 158.284 126.059 155.818Z" fill="#B7B7B7"/>
<path d="M172.578 88.1384C171.745 86.4059 169.993 85.304 168.071 85.304H90.1124L102.285 110.635C103.95 114.1 107.454 116.304 111.298 116.304H170.212C177.578 116.304 182.416 108.611 179.226 101.973L172.578 88.1384Z" fill="#D0CECE"/>
<path d="M94.9844 48.24H81.4004C81.4004 36.912 83.0324 33.216 93.0644 27.408C97.4324 24.912 98.5844 22.512 98.5844 18.96C98.5844 15.024 95.2724 11.808 90.1844 11.808C84.0404 11.808 80.2484 15.696 80.2484 21.888H66.9524C66.9524 8.016 77.0324 0 90.6164 0C103.768 0 112.408 8.736 112.408 19.056C112.408 26.976 109.432 31.68 100.408 36.672C95.5604 39.36 94.9844 42.24 94.9844 48.24ZM80.2484 61.488C80.2484 56.976 83.8484 53.52 88.5524 53.52C93.2564 53.52 96.8564 56.976 96.8564 61.488C96.8564 66 93.2564 69.456 88.5524 69.456C83.8484 69.456 80.2484 66 80.2484 61.488Z" fill="#FE9844"/>
</svg>
