<svg width="22" height="28" viewBox="0 0 22 28" fill="none" xmlns="http://www.w3.org/2000/svg">
<path d="M0 15.9558C0 9.68594 6.16212 3.55518 9.53952 0.764256C10.028 0.360559 10.7572 0.535782 11.0314 1.10711L14.1138 7.52869C14.4857 8.30327 15.5967 8.27929 15.9347 7.48938L16.5005 6.16725C16.7551 5.57239 17.5033 5.36888 17.9737 5.81314C19.8078 7.5453 21.2492 10.2796 21.2492 15.9558C21.2492 24.2687 15.5135 27.7325 11.4725 27.7325C7.43146 27.7325 0 24.6151 0 15.9558Z" fill="#FE9844"/>
<path d="M8.89765 12.7646L10.6079 14.7314C11.8124 16.1166 13.9464 16.1682 15.2164 14.8429C15.3976 14.6538 15.6704 14.5759 15.8575 14.7591C16.3146 15.2067 16.8921 16.3464 16.8921 18.3502C16.8921 21.583 13.1975 23.7767 10.7729 23.7767C8.34827 23.7767 5 21.8139 5 18.3502C5 16.1074 6.41182 13.9655 7.52145 12.7203C7.89228 12.3041 8.53189 12.3439 8.89765 12.7646Z" fill="#FFC392"/>
</svg>
