<svg width="28" height="29" viewBox="0 0 28 29" fill="none" xmlns="http://www.w3.org/2000/svg">
<line x1="1" y1="-1" x2="6.31316" y2="-1" transform="matrix(-0.69617 0.717877 -0.69617 -0.717877 5.09082 21.875)" stroke="#FFC392" stroke-width="2" stroke-linecap="round"/>
<path d="M8.59829 8.71135C10.9621 11.149 10.9622 15.1014 8.59829 17.539L6.05292 20.1637C5.98957 20.2291 5.88651 20.229 5.82313 20.1637C3.4592 17.7261 3.4592 13.7737 5.82313 11.3361L8.3685 8.71135L8.42221 8.6742C8.48082 8.64968 8.55076 8.66234 8.59829 8.71135Z" fill="#FE9844" stroke="#FE9844"/>
<path d="M16.236 0.836355C18.5998 3.27401 18.5999 7.22641 16.236 9.664L13.6906 12.2887C13.6273 12.3541 13.5242 12.354 13.4608 12.2887C11.0969 9.8511 11.0969 5.89874 13.4608 3.46109L16.0062 0.836355L16.0599 0.799199C16.1185 0.774682 16.1885 0.787336 16.236 0.836355Z" fill="#FE9844" stroke="#FE9844"/>
<path d="M19.5522 20.0065C17.1883 17.569 13.3554 17.5689 10.9915 20.0065L8.44613 22.6313C8.38278 22.6966 8.38284 22.8029 8.44613 22.8682C10.8101 25.3059 14.6429 25.3059 17.0068 22.8682L19.5522 20.2435L19.5882 20.1881C19.612 20.1277 19.5998 20.0555 19.5522 20.0065Z" fill="#FE9844" stroke="#FE9844"/>
<path d="M27.1889 12.1315C24.825 9.69403 20.9921 9.69393 18.6282 12.1315L16.0829 14.7563C16.0195 14.8216 16.0196 14.9279 16.0829 14.9932C18.4468 17.4309 22.2796 17.4309 24.6436 14.9932L27.1889 12.3685L27.225 12.3131C27.2487 12.2527 27.2365 12.1805 27.1889 12.1315Z" fill="#FE9844" stroke="#FE9844"/>
<path d="M25.9138 2.15153C26.3143 3.44556 25.9816 4.86338 25.0483 5.82574L24.3161 6.58077C23.3831 7.54278 22.009 7.88442 20.7544 7.47181C20.3544 6.17815 20.6857 4.76107 21.6185 3.799L22.3507 3.04397C23.2839 2.08175 24.659 1.7387 25.9138 2.15153Z" fill="#FE9844" stroke="#FE9844"/>
</svg>
