<svg width="28" height="28" viewBox="0 0 28 28" fill="none" xmlns="http://www.w3.org/2000/svg">
<ellipse cx="19.6088" cy="9.07843" rx="4.65758" ry="5.71612" fill="#FFC392"/>
<path d="M18.7691 1.2843C19.1634 0.679285 20.0494 0.678989 20.4442 1.28374L23.557 6.05237H15.6611L18.7691 1.2843Z" fill="#FFC392"/>
<ellipse cx="12.2881" cy="17.2892" rx="8.38376" ry="10.2892" fill="#FFEDDE"/>
<path d="M11.4477 2.38879C11.842 1.78378 12.728 1.78348 13.1228 2.38823L19.3964 11.9989H5.18359L11.4477 2.38879Z" fill="#FFEDDE"/>
<ellipse cx="11.1836" cy="17.4464" rx="8.38376" ry="10.2892" fill="#FE9844"/>
<path d="M10.3432 2.38879C10.7375 1.78378 11.6235 1.78348 12.0183 2.38823L18.2919 11.9989H4.0791L10.3432 2.38879Z" fill="#FE9844"/>
<path d="M5.26663 18.8584C5.10224 20.3379 6.06375 23.5928 9.21999 24.7763" stroke="#FFEDDE" stroke-linecap="round"/>
</svg>
