<svg width="28" height="28" viewBox="0 0 28 28" fill="none" xmlns="http://www.w3.org/2000/svg">
<path d="M25.6262 13.8362C22.4611 17.0014 17.3296 17.0014 14.1645 13.8362C10.9994 10.6709 10.9994 5.53912 14.1645 2.37391C17.3296 -0.791303 22.4611 -0.791303 25.6262 2.37391C28.7913 5.53912 28.7913 10.6709 25.6262 13.8362Z" fill="#FE9844"/>
<path d="M12.8942 4.01809C13.1001 3.63564 13.9957 3.16092 14.3029 3.46807L24.5321 13.6978C24.8392 14.0049 24.5643 14.7799 24.1818 14.9858L18.9399 17.6572L13.8679 19.831C12.8931 20.2488 11.7622 20.031 11.0122 19.281L8.71989 16.9886C7.96996 16.2386 7.75216 15.1076 8.16994 14.1327L10.3436 9.06052L12.8942 4.01809Z" fill="#FE9844"/>
<path d="M6.63577 18.5C7.14222 17.9935 7.96332 17.9935 8.46977 18.5L9.5012 19.5315C10.0076 20.0379 10.0076 20.8591 9.50119 21.3656L6.12006 24.7469L3.25463 21.8813L6.63577 18.5Z" fill="#FFC392"/>
<path d="M4.61183 24.3439C3.55681 25.3989 1.84629 25.3989 0.791265 24.3439C-0.263755 23.2888 -0.263755 21.5782 0.791265 20.5231C1.84629 19.4681 3.55681 19.4681 4.61183 20.5231C5.66685 21.5782 5.66685 23.2888 4.61183 24.3439Z" fill="#FFC392"/>
<path d="M7.47842 27.2087C6.4234 28.2638 4.71287 28.2638 3.65785 27.2087C2.60283 26.1536 2.60283 24.443 3.65785 23.3879C4.71287 22.3329 6.4234 22.3329 7.47842 23.3879C8.53344 24.443 8.53344 26.1536 7.47842 27.2087Z" fill="#FFC392"/>
</svg>
