<svg width="50" height="40" viewBox="0 0 50 40" fill="none" xmlns="http://www.w3.org/2000/svg">
<path d="M0.723607 25.4472C0.391156 24.7823 0.874652 24 1.61803 24H48.382C49.1253 24 49.6088 24.7823 49.2764 25.4472L47.2764 29.4472C47.107 29.786 46.7607 30 46.382 30H3.61804C3.23926 30 2.893 29.786 2.72361 29.4472L0.723607 25.4472Z" fill="#A0A0A0"/>
<circle cx="25" cy="5" r="4" stroke="#D9D9D9" stroke-width="2"/>
<path d="M25 4C37.519 4.00008 47.702 12.9092 48 24H2C2.29797 12.9092 12.4809 4 25 4Z" fill="#B9B9B9"/>
<mask id="mask0_1524_327" style="mask-type:alpha" maskUnits="userSpaceOnUse" x="2" y="4" width="46" height="20">
<path d="M25 4C37.519 4.00008 47.702 12.9092 48 24H2C2.29797 12.9092 12.4809 4 25 4Z" fill="#B9B9B9"/>
</mask>
<g mask="url(#mask0_1524_327)">
<ellipse cx="38.5" cy="15" rx="16.5" ry="15" fill="white" fill-opacity="0.2"/>
</g>
<circle cx="38" cy="28" r="12" fill="#FE9844"/>
<path d="M31 31.3337H34.6667C34.9814 31.3337 35.2778 31.1855 35.4667 30.9337L39.8667 25.067C40.0555 24.8152 40.3519 24.667 40.6667 24.667H44.3333" stroke="white" stroke-width="1.5" stroke-linecap="round"/>
<path d="M31 24.6663H34.6667C34.9814 24.6663 35.2778 24.8145 35.4667 25.0663L39.8667 30.933C40.0555 31.1848 40.3519 31.333 40.6667 31.333H44.3333" stroke="white" stroke-width="1.5" stroke-linecap="round"/>
<path d="M42.6665 29.667L45.0417 31.2505C45.1011 31.29 45.1011 31.3773 45.0417 31.4169L42.6665 33.0003" stroke="white" stroke-linecap="round"/>
<path d="M42.6665 23L45.0417 24.5835C45.1011 24.623 45.1011 24.7103 45.0417 24.7499L42.6665 26.3333" stroke="white" stroke-linecap="round"/>
</svg>
