<svg width="50" height="50" viewBox="0 0 50 50" fill="none" xmlns="http://www.w3.org/2000/svg">
<path d="M25 0C38.8071 0 50 11.1929 50 25C50 25.3567 49.7068 25.641 49.3501 25.641H25.641V49.3501C25.641 49.7068 25.3567 50 25 50C11.1929 50 0 38.8071 0 25C0 11.1929 11.1929 0 25 0Z" fill="#D4D4D4"/>
<path d="M48.3681 31C48.6907 31 48.929 31.3015 48.8466 31.6134C46.6277 40.0145 40.014 46.6275 31.6134 48.8466C31.3015 48.929 31 48.6907 31 48.3681V31.5C31 31.2239 31.2239 31 31.5 31H48.3681Z" fill="#FE9844"/>
<path d="M25.6406 0C39.1517 0.339834 50 11.3993 50 24.9922C50 25.3487 49.707 25.6326 49.3506 25.6328H25.6406V25.6338H0.0078125V25.6328H25.6406V0Z" fill="#EFEFEF"/>
</svg>
