<svg width="50" height="49" viewBox="0 0 50 49" fill="none" xmlns="http://www.w3.org/2000/svg">
<rect y="1" width="47" height="43" rx="5" fill="#EFEFEF"/>
<path d="M42 1C44.7614 1 47 3.23858 47 6V11H0V6C0 3.23858 2.23858 1 5 1H42Z" fill="#D4D4D4"/>
<rect x="4" y="16" width="4" height="4" rx="1" fill="#D4D4D4"/>
<rect x="34" y="16" width="4" height="4" rx="1" fill="#D4D4D4"/>
<rect x="40" y="16" width="4" height="4" rx="1" fill="#D4D4D4"/>
<rect x="28" y="16" width="4" height="4" rx="1" fill="#D4D4D4"/>
<rect x="22" y="16" width="4" height="4" rx="1" fill="#D4D4D4"/>
<rect x="16" y="16" width="4" height="4" rx="1" fill="#D4D4D4"/>
<rect x="10" y="16" width="4" height="4" rx="1" fill="#D4D4D4"/>
<rect x="4" y="34" width="4" height="4" rx="1" fill="#D4D4D4"/>
<rect x="34" y="34" width="4" height="4" rx="1" fill="#D4D4D4"/>
<rect x="40" y="34" width="4" height="4" rx="1" fill="#D4D4D4"/>
<rect x="28" y="34" width="4" height="4" rx="1" fill="#D4D4D4"/>
<rect x="22" y="34" width="4" height="4" rx="1" fill="#D4D4D4"/>
<rect x="16" y="34" width="4" height="4" rx="1" fill="#D4D4D4"/>
<rect x="10" y="34" width="4" height="4" rx="1" fill="#D4D4D4"/>
<rect x="4" y="28" width="4" height="4" rx="1" fill="#D4D4D4"/>
<rect x="34" y="28" width="4" height="4" rx="1" fill="#D4D4D4"/>
<rect x="40" y="28" width="4" height="4" rx="1" fill="#D4D4D4"/>
<rect x="28" y="28" width="4" height="4" rx="1" fill="#D4D4D4"/>
<rect x="22" y="28" width="4" height="4" rx="1" fill="#D4D4D4"/>
<rect x="16" y="28" width="4" height="4" rx="1" fill="#D4D4D4"/>
<rect x="10" y="28" width="4" height="4" rx="1" fill="#D4D4D4"/>
<rect x="4" y="22" width="4" height="4" rx="1" fill="#D4D4D4"/>
<rect x="34" y="22" width="4" height="4" rx="1" fill="#D4D4D4"/>
<rect x="40" y="22" width="4" height="4" rx="1" fill="#D4D4D4"/>
<rect x="28" y="22" width="4" height="4" rx="1" fill="#D4D4D4"/>
<rect x="22" y="22" width="4" height="4" rx="1" fill="#D4D4D4"/>
<rect x="16" y="22" width="4" height="4" rx="1" fill="#D4D4D4"/>
<rect x="10" y="22" width="4" height="4" rx="1" fill="#D4D4D4"/>
<circle cx="38" cy="37" r="12" fill="#FE9844"/>
<rect x="8" width="2" height="5" rx="1" fill="#A4A4A4"/>
<rect x="38" width="2" height="5" rx="1" fill="#A4A4A4"/>
<rect x="32" width="2" height="5" rx="1" fill="#A4A4A4"/>
<rect x="26" width="2" height="5" rx="1" fill="#A4A4A4"/>
<rect x="20" width="2" height="5" rx="1" fill="#A4A4A4"/>
<rect x="14" width="2" height="5" rx="1" fill="#A4A4A4"/>
<path d="M32 37.7895L35.0591 41.1437C35.4705 41.5948 36.1867 41.5752 36.5727 41.1021L44 32" stroke="white" stroke-width="2" stroke-linecap="round"/>
</svg>
