<svg width="50" height="40" viewBox="0 0 50 40" fill="none" xmlns="http://www.w3.org/2000/svg">
<circle cx="4.5" cy="13.5" r="4.5" fill="#EFEFEF"/>
<circle cx="16.5" cy="6.5" r="6.5" fill="#EFEFEF"/>
<circle cx="25.5" cy="6.5" r="6.5" fill="#EFEFEF"/>
<circle cx="16.5" cy="10.5" r="6.5" fill="#EFEFEF"/>
<circle cx="37.5" cy="11.5" r="6.5" fill="#EFEFEF"/>
<circle cx="27.5" cy="10.5" r="6.5" fill="#EFEFEF"/>
<circle cx="34.5" cy="8.5" r="6.5" fill="#EFEFEF"/>
<circle cx="41.5" cy="10.5" r="4.5" fill="#EFEFEF"/>
<circle cx="9.5" cy="10.5" r="4.5" fill="#EFEFEF"/>
<circle cx="45.5" cy="13.5" r="4.5" fill="#EFEFEF"/>
<path d="M49.9883 13C49.9958 13.1661 50 13.3327 50 13.5C50 19.0809 45.8016 24.014 39.376 27H10.624C4.19838 24.014 0 19.0809 0 13.5C0 13.3327 0.00422964 13.1661 0.0117188 13H49.9883Z" fill="#B9B9B9"/>
<mask id="mask0_1524_397" style="mask-type:alpha" maskUnits="userSpaceOnUse" x="0" y="13" width="50" height="14">
<path d="M49.9883 13C49.9958 13.1661 50 13.3327 50 13.5C50 19.0809 45.8016 24.014 39.376 27H10.624C4.19838 24.014 0 19.0809 0 13.5C0 13.3327 0.00422964 13.1661 0.0117188 13H49.9883Z" fill="#B9B9B9"/>
</mask>
<g mask="url(#mask0_1524_397)">
<ellipse cx="38.5" cy="19.5" rx="16.5" ry="12.5" fill="white" fill-opacity="0.2"/>
</g>
<circle cx="38" cy="28" r="12" fill="#FE9844"/>
<path d="M12.0391 7C13.3462 7 14.4603 7.82532 14.8893 8.98326C14.98 9.22802 14.82 9.48231 14.5678 9.54978C14.2875 9.6248 14.0074 9.43833 13.8845 9.17546C13.5598 8.48112 12.8564 8 12.0391 8C10.9129 8.00004 10 8.91294 10 10.0391C10 10.0985 10.0027 10.1572 10.0079 10.2153C10.0336 10.5036 9.88524 10.8038 9.60569 10.8788C9.35382 10.9463 9.08831 10.8062 9.04389 10.5492C9.01522 10.3834 9 10.213 9 10.0391C9.00004 8.36065 10.3607 7.00004 12.0391 7Z" fill="#D9D9D9"/>
<path d="M25.8262 5.00586C28.3601 5.13414 30.375 7.23008 30.375 9.7959C30.3724 9.9034 30.2749 9.98348 30.169 9.96509L29.4048 9.83249C29.3871 9.82941 29.375 9.81394 29.375 9.7959C29.375 7.69983 27.6761 6.00021 25.5801 6C24.0759 6.00008 22.7759 6.87536 22.1617 8.14429C22.0531 8.36853 21.8161 8.51155 21.5706 8.46872C21.2681 8.41593 21.0792 8.10781 21.2053 7.82783C21.9566 6.16071 23.633 5.00008 25.5801 5L25.8262 5.00586Z" fill="#D9D9D9"/>
<path d="M38.6827 7.71867C40.0003 7.36563 41.3504 8.02186 41.9125 9.21344C42.0303 9.4632 41.868 9.74049 41.6013 9.81197C41.3345 9.88343 41.0661 9.71904 40.9235 9.48258C40.525 8.82174 39.7243 8.47486 38.9415 8.6846C38.1588 8.89437 37.6388 9.5951 37.6241 10.3666C37.6188 10.6427 37.4685 10.9193 37.2018 10.9908C36.9351 11.0623 36.6558 10.9033 36.633 10.6281C36.524 9.31514 37.3652 8.07176 38.6827 7.71867Z" fill="#D9D9D9"/>
<path d="M33 23C33 22.4477 33.4477 22 34 22H42C42.5523 22 43 22.4477 43 23V34.7929C43 35.2383 42.4614 35.4614 42.1464 35.1464L38 31L33.8536 35.1464C33.5386 35.4614 33 35.2383 33 34.7929V23Z" fill="white"/>
</svg>
