<svg width="30" height="31" viewBox="0 0 30 31" fill="none" xmlns="http://www.w3.org/2000/svg">
<line x1="1" y1="-1" x2="6.83532" y2="-1" transform="matrix(-0.69615 0.717896 -0.696151 -0.717896 5.45508 23.4375)" stroke="#C5C5C5" stroke-width="2" stroke-linecap="round"/>
<path d="M8.593 8.94886C8.86686 8.66644 9.31088 8.66644 9.58474 8.94886C12.3233 11.773 12.3233 16.3519 9.58474 19.176L6.85746 21.9885C6.58359 22.2709 6.13958 22.2709 5.86572 21.9885C3.1271 19.1643 3.1271 14.5855 5.86572 11.7613L8.593 8.94886Z" fill="#C5C5C5"/>
<path d="M16.7756 0.511359C17.0495 0.228943 17.4935 0.228943 17.7674 0.511359C20.506 3.33552 20.506 7.91438 17.7674 10.7385L15.0401 13.551C14.7662 13.8334 14.3222 13.8334 14.0483 13.551C11.3097 10.7268 11.3097 6.14799 14.0483 3.32383L16.7756 0.511359Z" fill="#C5C5C5"/>
<path d="M21.3205 22.0739C21.5944 21.7914 21.5944 21.3336 21.3205 21.0511C18.5819 18.227 14.1418 18.227 11.4031 21.0511L8.67586 23.8636C8.402 24.146 8.402 24.6039 8.67586 24.8863C11.4145 27.7105 15.8546 27.7105 18.5933 24.8863L21.3205 22.0739Z" fill="#C5C5C5"/>
<path d="M29.5022 13.6364C29.776 13.3539 29.776 12.8961 29.5022 12.6136C26.7636 9.78948 22.3234 9.78948 19.5848 12.6136L16.8575 15.4261C16.5836 15.7085 16.5836 16.1664 16.8575 16.4488C19.5961 19.273 24.0363 19.273 26.7749 16.4488L29.5022 13.6364Z" fill="#C5C5C5"/>
<path d="M23.5726 2.87689C24.7251 1.6883 26.43 1.27326 27.9764 1.80481C28.1049 1.84899 28.2057 1.95297 28.2485 2.08549C28.764 3.68014 28.3615 5.43826 27.2089 6.62685L26.4248 7.43552C25.2722 8.62411 23.5673 9.03914 22.021 8.50759C21.8925 8.46342 21.7916 8.35943 21.7488 8.22692C21.2333 6.63226 21.6358 4.87414 22.7884 3.68555L23.5726 2.87689Z" fill="#C5C5C5"/>
</svg>
