<svg width="30" height="31" viewBox="0 0 30 31" fill="none" xmlns="http://www.w3.org/2000/svg">
<line x1="1" y1="-1" x2="6.83532" y2="-1" transform="matrix(-0.69615 0.717896 -0.696151 -0.717896 5.45508 23.4375)" stroke="#ABABAB" stroke-width="2" stroke-linecap="round"/>
<path d="M9.23639 9.30753C11.7828 11.9334 11.7828 16.1909 9.23639 18.8168L6.5089 21.6295C6.42726 21.7135 6.2954 21.7136 6.21385 21.6295C3.66747 19.0036 3.66747 14.7461 6.21385 12.1202L8.94134 9.30753C9.0229 9.22373 9.15484 9.22372 9.23639 9.30753Z" fill="#ABABAB" stroke="#ABABAB"/>
<path d="M17.419 0.870028C19.9654 3.49594 19.9654 7.75343 17.419 10.3793L14.6915 13.192C14.6099 13.276 14.478 13.2761 14.3965 13.192C11.8501 10.5661 11.8501 6.30864 14.3965 3.68272L17.124 0.870028C17.2055 0.786225 17.3375 0.786225 17.419 0.870028Z" fill="#ABABAB" stroke="#ABABAB"/>
<path d="M20.9727 21.4104C18.4264 18.7845 14.2978 18.7845 11.7515 21.4104L9.02396 24.2231C8.94257 24.3072 8.94243 24.4432 9.02396 24.5273C11.5703 27.1532 15.6989 27.1532 18.2452 24.5273L20.9727 21.7146C21.054 21.6305 21.054 21.4945 20.9727 21.4104Z" fill="#ABABAB" stroke="#ABABAB"/>
<path d="M29.1544 12.9729C26.608 10.347 22.4795 10.347 19.9331 12.9729L17.2056 15.7856C17.1242 15.8697 17.1241 16.0057 17.2056 16.0898C19.752 18.7157 23.8805 18.7157 26.4269 16.0898L29.1544 13.2771C29.2356 13.193 29.2356 13.057 29.1544 12.9729Z" fill="#ABABAB" stroke="#ABABAB"/>
<path d="M27.7906 2.27637C28.2324 3.68058 27.8741 5.22313 26.8606 6.26827L26.0768 7.0766C25.0634 8.12167 23.5681 8.49039 22.2065 8.03497C21.7652 6.63103 22.1233 5.08935 23.1365 4.04447L23.9203 3.23614C24.9336 2.1912 26.4292 1.8212 27.7906 2.27637Z" fill="#ABABAB" stroke="#ABABAB"/>
</svg>
