<svg width="22" height="22" viewBox="0 0 22 22" fill="none" xmlns="http://www.w3.org/2000/svg">
<path d="M4.73914 10.2621C4.81802 10.1832 4.94592 10.1832 5.0248 10.2621C6.60247 11.8398 6.60247 14.3977 5.0248 15.9754L3.02516 17.975C2.94627 18.0539 2.81838 18.0539 2.7395 17.975C1.16182 16.3973 1.16182 13.8394 2.7395 12.2618L4.73914 10.2621Z" fill="#FE9844"/>
<path d="M11.7379 17.2609C11.8168 17.182 11.8168 17.0541 11.7379 16.9752C10.1602 15.3975 7.6023 15.3975 6.02462 16.9752L4.02498 18.9748C3.9461 19.0537 3.9461 19.1816 4.02498 19.2605C5.60265 20.8382 8.16057 20.8382 9.73824 19.2605L11.7379 17.2609Z" fill="#FE9844"/>
<path d="M9.73824 5.26301C9.81713 5.18413 9.94502 5.18413 10.0239 5.26301C11.6016 6.84068 11.6016 9.3986 10.0239 10.9763L8.02426 12.9759C7.94538 13.0548 7.81748 13.0548 7.7386 12.9759C6.16093 11.3982 6.16093 8.84033 7.7386 7.26265L9.73824 5.26301Z" fill="#FE9844"/>
<path d="M16.737 12.2618C16.8159 12.1829 16.8159 12.055 16.737 11.9761C15.1593 10.3984 12.6014 10.3984 11.0237 11.9761L9.02409 13.9757C8.9452 14.0546 8.9452 14.1825 9.02408 14.2614C10.6018 15.8391 13.1597 15.8391 14.7373 14.2614L16.737 12.2618Z" fill="#FE9844"/>
<path d="M14.7373 0.263904C14.8162 0.18502 14.9441 0.18502 15.023 0.263904C16.6007 1.84158 16.6007 4.39949 15.023 5.97717L13.0234 7.97681C12.9445 8.05569 12.8166 8.05569 12.7377 7.97681C11.16 6.39914 11.16 3.84122 12.7377 2.26355L14.7373 0.263904Z" fill="#FE9844"/>
<path d="M21.7361 7.26265C21.815 7.18377 21.815 7.05587 21.7361 6.97699C20.1584 5.39931 17.6005 5.39931 16.0228 6.97699L14.0232 8.97663C13.9443 9.05551 13.9443 9.18341 14.0232 9.26229C15.6009 10.84 18.1588 10.84 19.7365 9.26229L21.7361 7.26265Z" fill="#FE9844"/>
<path d="M2.68236 18.3178C2.7928 18.2074 2.97185 18.2074 3.08229 18.3178L3.68218 18.9177C3.79262 19.0281 3.79262 19.2072 3.68218 19.3176L1.08265 21.9172C0.972211 22.0276 0.793158 22.0276 0.682721 21.9172L0.0828285 21.3173C-0.0276087 21.2068 -0.0276099 21.0278 0.0828273 20.9174L2.68236 18.3178Z" fill="#FE9844"/>
<path d="M21.8369 0C21.927 0 22 0.0730445 22 0.163149C22 2.41577 20.1739 4.24188 17.9213 4.24188C17.8312 4.24188 17.7581 4.16884 17.7581 4.07873C17.7581 1.82611 19.5842 0 21.8369 0Z" fill="#FE9844"/>
</svg>
