<svg width="30" height="30" viewBox="0 0 30 30" fill="none" xmlns="http://www.w3.org/2000/svg">
<ellipse cx="21.0098" cy="9.72696" rx="4.99027" ry="6.12442" fill="white"/>
<path d="M20.17 1.2843C20.5644 0.679287 21.4504 0.67899 21.8451 1.28374L25.2402 6.48468H16.7803L20.17 1.2843Z" fill="white"/>
<ellipse cx="13.1662" cy="18.693" rx="8.9826" ry="11.0241" fill="#EDC8AA"/>
<path d="M12.325 2.46789C12.7194 1.86288 13.6054 1.86258 14.0001 2.46733L20.7817 12.8562H5.55371L12.325 2.46789Z" fill="#EDC8AA"/>
<ellipse cx="11.9826" cy="18.693" rx="8.9826" ry="11.0241" fill="white"/>
<path d="M11.1414 2.46789C11.5358 1.86288 12.4218 1.86258 12.8166 2.46733L19.5981 12.8562H4.37012L11.1414 2.46789Z" fill="white"/>
<path d="M5.64289 20.2051C5.46676 21.7902 6.49694 25.2776 9.87863 26.5457" stroke="#EDC8AA" stroke-linecap="round"/>
</svg>
