<svg width="30" height="30" viewBox="0 0 30 30" fill="none" xmlns="http://www.w3.org/2000/svg">
<path d="M27.4566 14.8245C24.0655 18.2158 18.5674 18.2158 15.1763 14.8245C11.7851 11.4332 11.7851 5.93477 15.1763 2.54347C18.5674 -0.847825 24.0655 -0.847825 27.4566 2.54347C30.8478 5.93477 30.8478 11.4332 27.4566 14.8245Z" fill="#C5C5C5"/>
<path d="M13.8152 4.30509C14.0359 3.89532 14.9954 3.3867 15.3245 3.71578L26.2844 14.6762C26.6135 15.0053 26.3188 15.8356 25.9091 16.0562L20.2928 18.9184L14.8585 21.2475C13.8141 21.6952 12.6023 21.4618 11.7988 20.6582L9.34274 18.202C8.53925 17.3985 8.30589 16.1867 8.75351 15.1422L11.0825 9.7077L13.8152 4.30509Z" fill="#C5C5C5"/>
<path d="M7.54111 19.3901C8.08373 18.8474 8.96349 18.8474 9.50611 19.3901L10.6112 20.4952C11.1538 21.0379 11.1538 21.9177 10.6112 22.4603L6.98856 26.0831L3.91846 23.0129L7.54111 19.3901Z" fill="#C5C5C5"/>
<path d="M4.94125 26.0827C3.81087 27.2132 1.97816 27.2132 0.847784 26.0827C-0.282595 24.9523 -0.282595 23.1195 0.847784 21.9891C1.97816 20.8586 3.81087 20.8586 4.94125 21.9891C6.07163 23.1195 6.07163 24.9523 4.94125 26.0827Z" fill="#C5C5C5"/>
<path d="M8.01259 29.1522C6.88221 30.2826 5.0495 30.2826 3.91912 29.1522C2.78875 28.0217 2.78875 26.1889 3.91912 25.0585C5.0495 23.9281 6.88221 23.9281 8.01259 25.0585C9.14297 26.1889 9.14297 28.0217 8.01259 29.1522Z" fill="#C5C5C5"/>
</svg>
