<svg width="22" height="22" viewBox="0 0 22 22" fill="none" xmlns="http://www.w3.org/2000/svg">
<path d="M20.1349 10.8713C17.648 13.3582 13.6161 13.3582 11.1293 10.8713C8.64242 8.38432 8.64242 4.35217 11.1293 1.86521C13.6161 -0.621738 17.648 -0.621738 20.1349 1.86521C22.6217 4.35217 22.6217 8.38432 20.1349 10.8713Z" fill="#FE9844"/>
<path d="M10.1312 3.15707C10.293 2.85657 10.9967 2.48358 11.238 2.72491L19.2752 10.7625C19.5165 11.0039 19.3005 11.6128 19 11.7746L14.8814 13.8735L10.8962 15.5815C10.1303 15.9098 9.24171 15.7386 8.65248 15.1494L6.85135 13.3482C6.26211 12.7589 6.09098 11.8703 6.41924 11.1043L8.12715 7.11898L10.1312 3.15707Z" fill="#FE9844"/>
<path d="M5.53015 14.2194C5.92807 13.8214 6.57323 13.8214 6.97115 14.2194L7.78155 15.0298C8.17948 15.4278 8.17947 16.0729 7.78155 16.4709L5.12494 19.1276L2.87354 16.8761L5.53015 14.2194Z" fill="#FE9844"/>
<path d="M3.62358 19.1273C2.79464 19.9563 1.45065 19.9563 0.621708 19.1273C-0.207236 18.2983 -0.207236 16.9543 0.621708 16.1253C1.45065 15.2963 2.79464 15.2963 3.62358 16.1253C4.45253 16.9543 4.45253 18.2983 3.62358 19.1273Z" fill="#FE9844"/>
<path d="M5.8759 21.3783C5.04695 22.2072 3.70297 22.2072 2.87402 21.3783C2.04508 20.5493 2.04508 19.2052 2.87402 18.3762C3.70297 17.5473 5.04695 17.5473 5.8759 18.3762C6.70484 19.2052 6.70484 20.5493 5.8759 21.3783Z" fill="#FE9844"/>
</svg>
