<svg width="133" height="129" viewBox="0 0 133 129" fill="none" xmlns="http://www.w3.org/2000/svg">
<rect y="29" width="114" height="81" rx="20" fill="#D0CECE"/>
<path d="M20.4348 123.681L22.6786 101.474L37.2873 109.046L20.4348 123.681Z" fill="#D0CECE"/>
<rect x="3" y="24" width="114" height="81" rx="20" fill="#E5E5E5"/>
<path d="M23.4348 118.681L25.6786 96.4739L40.2873 104.046L23.4348 118.681Z" fill="#E5E5E5"/>
<line x1="24.5" y1="44.5" x2="61.5" y2="44.5" stroke="#B7B7B7" stroke-width="3" stroke-linecap="round"/>
<line x1="24.5" y1="61.5" x2="72.5" y2="61.5" stroke="#B7B7B7" stroke-width="3" stroke-linecap="round"/>
<line x1="25.5" y1="79.5" x2="95.5" y2="79.5" stroke="#B7B7B7" stroke-width="3" stroke-linecap="round"/>
<ellipse cx="100" cy="32.5" rx="33" ry="32.5" fill="#FE9844"/>
<path d="M101.686 38.64H96.0263C96.0263 33.92 96.7063 32.38 100.886 29.96C102.706 28.92 103.186 27.92 103.186 26.44C103.186 24.8 101.806 23.46 99.6863 23.46C97.1263 23.46 95.5463 25.08 95.5463 27.66H90.0063C90.0063 21.88 94.2063 18.54 99.8663 18.54C105.346 18.54 108.946 22.18 108.946 26.48C108.946 29.78 107.706 31.74 103.946 33.82C101.926 34.94 101.686 36.14 101.686 38.64ZM95.5463 44.16C95.5463 42.28 97.0463 40.84 99.0063 40.84C100.966 40.84 102.466 42.28 102.466 44.16C102.466 46.04 100.966 47.48 99.0063 47.48C97.0463 47.48 95.5463 46.04 95.5463 44.16Z" fill="white"/>
</svg>
