<svg width="48" height="48" viewBox="0 0 48 48" fill="none" xmlns="http://www.w3.org/2000/svg">
<circle cx="24" cy="24" r="24" fill="#FFAF6E"/>
<circle cx="24" cy="24" r="18" fill="#FE9844" stroke="#FFA459" stroke-width="4"/>
<path d="M17.3625 37H10.372V12.51H21.625L23.64 22.1665C23.7123 22.4145 23.764 22.6935 23.795 23.0035C23.8363 23.3032 23.857 23.577 23.857 23.825V29.281H24.322V23.825C24.322 23.577 24.3375 23.298 24.3685 22.988C24.4098 22.678 24.4615 22.4042 24.5235 22.1665L26.461 12.51H37.6055V37H30.615V29.0795C30.615 28.8315 30.6305 28.5525 30.6615 28.2425C30.7028 27.9325 30.7597 27.6587 30.832 27.421L31.948 18.214H31.483L28.0885 37H19.9045L16.4945 18.214H16.0295L17.1455 27.39C17.2178 27.638 17.2695 27.917 17.3005 28.227C17.3418 28.5267 17.3625 28.8005 17.3625 29.0485V37Z" fill="white"/>
</svg>
