<svg width="48" height="58" viewBox="0 0 48 58" fill="none" xmlns="http://www.w3.org/2000/svg">
<circle cx="24" cy="24" r="24" fill="#FFAF6E"/>
<circle cx="24" cy="24" r="18" fill="#FE9844" stroke="#FFA459" stroke-width="4"/>
<circle cx="24" cy="21" r="5" fill="white"/>
<mask id="path-4-outside-1_2781_7" maskUnits="userSpaceOnUse" x="8" y="20" width="32" height="29" fill="black">
<rect fill="white" x="8" y="20" width="32" height="29"/>
<path d="M17.3625 47H10.372V22.51H21.625L23.64 32.1665C23.7123 32.4145 23.764 32.6935 23.795 33.0035C23.8363 33.3032 23.857 33.577 23.857 33.825V39.281H24.322V33.825C24.322 33.577 24.3375 33.298 24.3685 32.988C24.4098 32.678 24.4615 32.4042 24.5235 32.1665L26.461 22.51H37.6055V47H30.615V39.0795C30.615 38.8315 30.6305 38.5525 30.6615 38.2425C30.7028 37.9325 30.7597 37.6587 30.832 37.421L31.948 28.214H31.483L28.0885 47H19.9045L16.4945 28.214H16.0295L17.1455 37.39C17.2178 37.638 17.2695 37.917 17.3005 38.227C17.3418 38.5267 17.3625 38.8005 17.3625 39.0485V47Z"/>
</mask>
<path d="M17.3625 47H10.372V22.51H21.625L23.64 32.1665C23.7123 32.4145 23.764 32.6935 23.795 33.0035C23.8363 33.3032 23.857 33.577 23.857 33.825V39.281H24.322V33.825C24.322 33.577 24.3375 33.298 24.3685 32.988C24.4098 32.678 24.4615 32.4042 24.5235 32.1665L26.461 22.51H37.6055V47H30.615V39.0795C30.615 38.8315 30.6305 38.5525 30.6615 38.2425C30.7028 37.9325 30.7597 37.6587 30.832 37.421L31.948 28.214H31.483L28.0885 47H19.9045L16.4945 28.214H16.0295L17.1455 37.39C17.2178 37.638 17.2695 37.917 17.3005 38.227C17.3418 38.5267 17.3625 38.8005 17.3625 39.0485V47Z" fill="white"/>
<path d="M17.3625 47V49H19.3625V47H17.3625ZM10.372 47H8.372V49H10.372V47ZM10.372 22.51V20.51H8.372V22.51H10.372ZM21.625 22.51L23.5828 22.1015L23.2507 20.51H21.625V22.51ZM23.64 32.1665L21.6822 32.575L21.6981 32.6515L21.72 32.7265L23.64 32.1665ZM23.795 33.0035L21.8049 33.2025L21.8086 33.2397L21.8138 33.2768L23.795 33.0035ZM23.857 39.281H21.857V41.281H23.857V39.281ZM24.322 39.281V41.281H26.322V39.281H24.322ZM24.3685 32.988L22.386 32.7237L22.3817 32.7563L22.3784 32.789L24.3685 32.988ZM24.5235 32.1665L26.4587 32.6713L26.4732 32.616L26.4844 32.5599L24.5235 32.1665ZM26.461 22.51V20.51H24.8224L24.5001 22.1166L26.461 22.51ZM37.6055 22.51H39.6055V20.51H37.6055V22.51ZM37.6055 47V49H39.6055V47H37.6055ZM30.615 47H28.615V49H30.615V47ZM30.6615 38.2425L28.679 37.9782L28.6747 38.0108L28.6714 38.0435L30.6615 38.2425ZM30.832 37.421L32.7453 38.0033L32.7964 37.8357L32.8175 37.6617L30.832 37.421ZM31.948 28.214L33.9335 28.4547L34.2051 26.214H31.948V28.214ZM31.483 28.214V26.214H29.812L29.5149 27.8584L31.483 28.214ZM28.0885 47V49H29.7595L30.0566 47.3556L28.0885 47ZM19.9045 47L17.9367 47.3572L18.2349 49H19.9045V47ZM16.4945 28.214L18.4623 27.8568L18.1641 26.214H16.4945V28.214ZM16.0295 28.214V26.214H13.7715L14.0441 28.4555L16.0295 28.214ZM17.1455 37.39L15.1601 37.6315L15.1798 37.7934L15.2255 37.95L17.1455 37.39ZM17.3005 38.227L15.3104 38.426L15.3141 38.4632L15.3193 38.5003L17.3005 38.227ZM17.3625 47V45H10.372V47V49H17.3625V47ZM10.372 47H12.372V22.51H10.372H8.372V47H10.372ZM10.372 22.51V24.51H21.625V22.51V20.51H10.372V22.51ZM21.625 22.51L19.6672 22.9185L21.6822 32.575L23.64 32.1665L25.5978 31.758L23.5828 22.1015L21.625 22.51ZM23.64 32.1665L21.72 32.7265C21.7518 32.8354 21.7837 32.9907 21.8049 33.2025L23.795 33.0035L25.7851 32.8045C25.7443 32.3963 25.6729 31.9936 25.56 31.6065L23.64 32.1665ZM23.795 33.0035L21.8138 33.2768C21.8452 33.5048 21.857 33.6857 21.857 33.825H23.857H25.857C25.857 33.4683 25.8275 33.1016 25.7762 32.7302L23.795 33.0035ZM23.857 33.825H21.857V39.281H23.857H25.857V33.825H23.857ZM23.857 39.281V41.281H24.322V39.281V37.281H23.857V39.281ZM24.322 39.281H26.322V33.825H24.322H22.322V39.281H24.322ZM24.322 33.825H26.322C26.322 33.6577 26.3326 33.4468 26.3586 33.187L24.3685 32.988L22.3784 32.789C22.3424 33.1492 22.322 33.4963 22.322 33.825H24.322ZM24.3685 32.988L26.351 33.2523C26.3842 33.0027 26.4221 32.8119 26.4587 32.6713L24.5235 32.1665L22.5883 31.6617C22.5009 31.9964 22.4354 32.3533 22.386 32.7237L24.3685 32.988ZM24.5235 32.1665L26.4844 32.5599L28.4219 22.9034L26.461 22.51L24.5001 22.1166L22.5626 31.7731L24.5235 32.1665ZM26.461 22.51V24.51H37.6055V22.51V20.51H26.461V22.51ZM37.6055 22.51H35.6055V47H37.6055H39.6055V22.51H37.6055ZM37.6055 47V45H30.615V47V49H37.6055V47ZM30.615 47H32.615V39.0795H30.615H28.615V47H30.615ZM30.615 39.0795H32.615C32.615 38.9122 32.6256 38.7013 32.6516 38.4415L30.6615 38.2425L28.6714 38.0435C28.6354 38.4037 28.615 38.7508 28.615 39.0795H30.615ZM30.6615 38.2425L32.644 38.5068C32.6744 38.2783 32.7115 38.1145 32.7453 38.0033L30.832 37.421L28.9187 36.8387C28.8078 37.2029 28.7312 37.5867 28.679 37.9782L30.6615 38.2425ZM30.832 37.421L32.8175 37.6617L33.9335 28.4547L31.948 28.214L29.9625 27.9733L28.8465 37.1803L30.832 37.421ZM31.948 28.214V26.214H31.483V28.214V30.214H31.948V28.214ZM31.483 28.214L29.5149 27.8584L26.1204 46.6444L28.0885 47L30.0566 47.3556L33.4511 28.5696L31.483 28.214ZM28.0885 47V45H19.9045V47V49H28.0885V47ZM19.9045 47L21.8723 46.6428L18.4623 27.8568L16.4945 28.214L14.5267 28.5712L17.9367 47.3572L19.9045 47ZM16.4945 28.214V26.214H16.0295V28.214V30.214H16.4945V28.214ZM16.0295 28.214L14.0441 28.4555L15.1601 37.6315L17.1455 37.39L19.1309 37.1485L18.0149 27.9725L16.0295 28.214ZM17.1455 37.39L15.2255 37.95C15.2573 38.0589 15.2892 38.2142 15.3104 38.426L17.3005 38.227L19.2906 38.028C19.2498 37.6198 19.1784 37.2171 19.0655 36.83L17.1455 37.39ZM17.3005 38.227L15.3193 38.5003C15.3507 38.7283 15.3625 38.9092 15.3625 39.0485H17.3625H19.3625C19.3625 38.6918 19.333 38.3251 19.2817 37.9537L17.3005 38.227ZM17.3625 39.0485H15.3625V47H17.3625H19.3625V39.0485H17.3625Z" fill="#FE9844" mask="url(#path-4-outside-1_2781_7)"/>
</svg>
