<svg width="85" height="76" viewBox="0 0 85 76" fill="none" xmlns="http://www.w3.org/2000/svg">
<path d="M21.648 75.84H0V0H34.848L41.088 29.904C41.312 30.672 41.472 31.536 41.568 32.496C41.696 33.424 41.76 34.272 41.76 35.04V51.936H43.2V35.04C43.2 34.272 43.248 33.408 43.344 32.448C43.472 31.488 43.632 30.64 43.824 29.904L49.824 0H84.336V75.84H62.688V51.312C62.688 50.544 62.736 49.68 62.832 48.72C62.96 47.76 63.136 46.912 63.36 46.176L66.816 17.664H65.376L54.864 75.84H29.52L18.96 17.664H17.52L20.976 46.08C21.2 46.848 21.36 47.712 21.456 48.672C21.584 49.6 21.648 50.448 21.648 51.216V75.84Z" fill="white"/>
</svg>
