<svg width="33" height="29" viewBox="0 0 33 29" fill="none" xmlns="http://www.w3.org/2000/svg">
<path d="M1.28738 14.5844C0.195027 7.46388 5.89004 1.20751 12.7647 1.97573L14.5803 2.17862C15.9226 2.32861 17.28 2.1999 18.5742 1.79994L19.8332 1.4109C26.2868 -0.583436 32.589 4.96508 31.787 11.9352L31.7632 12.1421C31.6609 13.0309 31.6946 13.931 31.8629 14.8089L32.8821 20.1236C33.8489 25.1654 28.6783 29.0524 24.3979 26.5013C23.0191 25.6796 21.3757 25.4897 19.8578 25.9768L11.6528 28.6099C5.56404 30.5639 -0.25167 24.8686 1.23503 18.4079C1.48809 17.3082 1.53018 16.1671 1.35885 15.0503L1.28738 14.5844Z" fill="#D4D4D4"/>
<path d="M0.287375 13.5844C-0.804973 6.46388 4.89004 0.207512 11.7647 0.975729L13.5803 1.17862C14.9226 1.32861 16.28 1.1999 17.5742 0.799937L18.8332 0.410898C25.2868 -1.58344 31.589 3.96508 30.787 10.9352L30.7632 11.1421C30.6609 12.0309 30.6946 12.931 30.8629 13.8089L31.8821 19.1236C32.8489 24.1654 27.6783 28.0524 23.3979 25.5013C22.0191 24.6796 20.3757 24.4897 18.8578 24.9768L10.6528 27.6099C4.56404 29.5639 -1.25167 23.8686 0.235028 17.4079C0.488094 16.3082 0.530177 15.1671 0.358854 14.0503L0.287375 13.5844Z" fill="#EFEFEF"/>
<circle cx="20" cy="15" r="5" fill="#FE9844"/>
<circle cx="21" cy="13" r="1" fill="#F7F7F7"/>
</svg>
