<svg width="34" height="31" viewBox="0 0 34 31" fill="none" xmlns="http://www.w3.org/2000/svg">
<path d="M5.89282 13.4846C6.85293 12.0485 8.1945 10.895 9.77376 10.1477L11.3199 9.41604C13.6337 8.32112 16.2036 7.8473 18.7662 8.04309L26.2877 8.61776C28.6224 8.79614 30.4906 10.5855 30.7217 12.8645L30.9292 14.9111C31.0829 16.4267 30.9859 17.9567 30.6421 19.4422L30.2083 21.3162C29.7096 23.4705 27.752 25 25.4934 25H7.83456C4.98651 25 2.75568 22.6042 3.02152 19.8311L3.13938 18.6016C3.21278 17.836 3.47606 17.0994 3.90639 16.4557L5.89282 13.4846Z" fill="#FE9844"/>
<path d="M23 8.54462L28.6943 2.18294L30.5565 3.84972L24.8621 10.2114L23 8.54462Z" fill="#EFEFEF"/>
<path d="M29.6157 3.4128C28.8354 4.19463 27.5691 4.19589 26.7873 3.41563C26.0055 2.63536 26.0042 1.36903 26.7845 0.5872C27.5647 -0.194629 28.8311 -0.195894 29.6129 0.584374C30.3947 1.36464 30.396 2.63097 29.6157 3.4128Z" fill="#EFEFEF"/>
<path d="M31.7388 5.53194C30.9585 6.31377 29.6922 6.31503 28.9103 5.53477C28.1285 4.7545 28.1272 3.48817 28.9075 2.70634C29.6878 1.92451 30.9541 1.92325 31.7359 2.70352C32.5178 3.48378 32.519 4.75011 31.7388 5.53194Z" fill="#EFEFEF"/>
<path d="M26.7842 0.585194C27.3031 0.0652238 28.0368 -0.107119 28.7002 0.0637097C28.3648 0.150045 28.0466 0.322274 27.7842 0.585194C27.0039 1.36702 27.0053 2.63403 27.7871 3.4143C27.9333 3.5602 28.0968 3.67852 28.2705 3.76976L24 8.5432L25.3066 9.71215L24.8623 10.2092L23 8.5432L27.2705 3.76976C27.0968 3.67852 26.9333 3.5602 26.7871 3.4143C26.0053 2.63403 26.0039 1.36702 26.7842 0.585194Z" fill="#D4D4D4"/>
<path d="M16.2753 15.002C15.0617 12.7088 16.0172 9.84524 18.3777 8.76822L20.3651 7.8614C20.9052 7.61501 21.3927 7.26691 21.801 6.83612L22.7089 5.87833C23.8165 4.70987 25.6267 4.56382 26.9073 5.5396C27.2531 5.80304 27.5406 6.13515 27.7518 6.51506L27.7775 6.56115C28.5001 7.86068 28.2958 9.47883 27.2728 10.558L26.0062 11.8941C25.6821 12.236 25.4 12.6154 25.166 13.0243L23.958 15.1343C22.675 17.3753 19.7429 18.0278 17.6308 16.5422C17.065 16.1443 16.5989 15.6134 16.2753 15.002Z" fill="#FF8623"/>
<path d="M2 26L32 26L28.1716 29.8284C27.4214 30.5786 26.404 31 25.3431 31H7.9225C6.70736 31 5.55811 30.4476 4.79902 29.4988L2 26Z" fill="#EFEFEF"/>
<rect y="23" width="34" height="3" rx="1.5" fill="#D4D4D4"/>
<mask id="mask0_2411_1394" style="mask-type:alpha" maskUnits="userSpaceOnUse" x="2" y="26" width="30" height="5">
<path d="M2 26L32 26L28.1716 29.8284C27.4214 30.5786 26.404 31 25.3431 31H7.9225C6.70736 31 5.55811 30.4476 4.79902 29.4988L2 26Z" fill="#EFEFEF"/>
</mask>
<g mask="url(#mask0_2411_1394)">
<circle cx="25.5" cy="26.5" r="9.5" fill="#D9D9D9" fill-opacity="0.36"/>
</g>
</svg>
