<svg width="22" height="34" viewBox="0 0 22 34" fill="none" xmlns="http://www.w3.org/2000/svg">
<path d="M0.142805 2.42769C0.0688415 1.17031 1.16158 0.158397 2.40958 0.328579L20.1545 2.74834C21.1943 2.89013 21.9476 3.8115 21.8801 4.85876L20.1207 32.1288C20.0528 33.1812 19.1795 34 18.1249 34H3.88581C2.82686 34 1.95145 33.1746 1.88926 32.1174L0.142805 2.42769Z" fill="#FFE8D4"/>
<mask id="mask0_2413_1413" style="mask-type:alpha" maskUnits="userSpaceOnUse" x="0" y="0" width="22" height="34">
<path d="M0.142805 2.42769C0.0688415 1.17031 1.16158 0.158397 2.40958 0.328579L20.1545 2.74834C21.1943 2.89013 21.9476 3.8115 21.8801 4.85876L20.1207 32.1288C20.0528 33.1812 19.1795 34 18.1249 34H3.88581C2.82686 34 1.95145 33.1746 1.88926 32.1174L0.142805 2.42769Z" fill="#FFE8D4"/>
</mask>
<g mask="url(#mask0_2413_1413)">
<path d="M17.5 1.5C19.6055 1.5 21.5942 2.90823 23.083 5.36035C24.5662 7.8034 25.5 11.2102 25.5 15C25.5 18.7898 24.5662 22.1966 23.083 24.6396C21.5942 27.0918 19.6055 28.5 17.5 28.5C15.3945 28.5 13.4058 27.0918 11.917 24.6396C10.4338 22.1966 9.5 18.7898 9.5 15C9.5 11.2102 10.4338 7.8034 11.917 5.36035C13.4058 2.90823 15.3945 1.5 17.5 1.5Z" fill="#FFE8D4" stroke="#C4B19F"/>
</g>
<path d="M7.88184 18.0592C9.81621 17.092 12.1168 17.2106 13.9414 18.3717L14.4609 18.7028C15.7464 19.5208 17.3396 19.6951 18.7715 19.1745C19.717 18.8306 20.5058 18.2139 21.0684 17.4352L20.1211 32.1286C20.0532 33.1809 19.1795 33.9996 18.125 33.9996H3.88574C2.82698 33.9996 1.95206 33.1747 1.88965 32.1178L1.02832 17.4791C1.59301 18.174 2.3597 18.7076 3.26172 18.9782C4.37828 19.3131 5.58038 19.2094 6.62305 18.6881L7.88184 18.0592Z" fill="#EFEFEF"/>
<path d="M21.9785 4.33395C21.7294 6.35663 16.649 7.37084 10.6309 6.59925C4.61291 5.82766 -0.0637685 3.56245 0.185284 1.53977C0.434337 -0.482917 5.40922 -0.0404809 11.4273 0.73111C17.4453 1.5027 22.2275 2.31126 21.9785 4.33395Z" fill="#FE9844"/>
<path d="M3.31823 2.11568C3.37513 1.98875 3.4917 1.89866 3.62887 1.87559L4.20097 1.7794C4.79814 1.67899 5.39711 1.94749 5.71948 2.4601L6.02831 2.95119C6.10236 3.06894 6.11266 3.21591 6.05576 3.34284C5.91985 3.64604 5.50085 3.67541 5.32396 3.39413L5.03045 2.9274C4.87762 2.68439 4.59367 2.5571 4.31057 2.6047L3.76684 2.69612C3.43917 2.75122 3.18231 2.41889 3.31823 2.11568Z" fill="#D27F3A"/>
<path d="M8.31645 2.95736C8.28044 2.823 8.31397 2.67953 8.4058 2.57505L8.78876 2.13929C9.1885 1.68443 9.82254 1.51454 10.3962 1.70859L10.9457 1.89449C11.0775 1.93906 11.1782 2.04654 11.2142 2.1809C11.3002 2.50185 10.9938 2.78914 10.6791 2.68266L10.1568 2.50598C9.88484 2.41399 9.58427 2.49453 9.39476 2.71016L9.03079 3.12431C8.81144 3.3739 8.40244 3.27831 8.31645 2.95736Z" fill="#D27F3A"/>
<path d="M11.0561 5.35906C11.0497 5.22011 11.1132 5.08716 11.2253 5.00477L11.6927 4.66118C12.1806 4.30253 12.8363 4.27243 13.355 4.58487L13.852 4.88419C13.9711 4.95596 14.0465 5.08253 14.0529 5.22149C14.0681 5.55341 13.7073 5.76838 13.4227 5.59694L12.9504 5.31246C12.7045 5.16434 12.3936 5.17861 12.1623 5.34863L11.7181 5.67519C11.4503 5.87199 11.0713 5.69099 11.0561 5.35906Z" fill="#D27F3A"/>
<path d="M16.3887 4.05885C16.4582 3.93838 16.5834 3.86065 16.7222 3.8517L17.3011 3.81436C17.9054 3.77539 18.4739 4.10359 18.7423 4.64641L18.9994 5.16644C19.061 5.29113 19.0563 5.43838 18.9868 5.55885C18.8206 5.84661 18.4008 5.83308 18.2535 5.53523L18.0092 5.04098C17.8819 4.78365 17.6124 4.62806 17.326 4.64654L16.7757 4.68202C16.4441 4.70341 16.2225 4.34661 16.3887 4.05885Z" fill="#D27F3A"/>
<ellipse cx="3.46236" cy="9.75545" rx="1" ry="1.5" transform="rotate(-20.5207 3.46236 9.75545)" fill="#DFC4AC"/>
<ellipse cx="19.3148" cy="10.6879" rx="1" ry="1.5" transform="rotate(13.1272 19.3148 10.6879)" fill="#DFC4AC"/>
<ellipse cx="13.384" cy="15.7217" rx="1" ry="1.5" transform="rotate(-16.4571 13.384 15.7217)" fill="#DFC4AC"/>
</svg>
