<svg width="26" height="34" viewBox="0 0 26 34" fill="none" xmlns="http://www.w3.org/2000/svg">
<path d="M1.41211 0L4.41211 1L6.91211 0L9.41211 1L12.4121 0L15.4121 1L17.9121 0L20.9121 1L23.4121 0V4H1.41211V0Z" fill="#B3B3B3"/>
<path d="M1.41211 34L4.41211 33L6.91211 34L9.41211 33L12.4121 34L15.4121 33L17.9121 34L20.9121 33L23.4121 34V30H1.41211V34Z" fill="#B3B3B3"/>
<path d="M1.41174 4H23.4117L24.2421 9.39714C25.0173 14.4361 25.0173 19.5639 24.2421 24.6029L23.4117 30H1.41174L0.581415 24.6029C-0.193805 19.5639 -0.193805 14.4361 0.581416 9.39714L1.41174 4Z" fill="#EFEFEF"/>
<path d="M24.5889 9.39746C25.687 14.4363 25.687 19.5637 24.5889 24.6025L23.4131 30H21.4121L22.5889 24.6025C23.687 19.5638 23.687 14.4362 22.5889 9.39746L21.4121 4H23.4131L24.5889 9.39746Z" fill="#D4D4D4"/>
<ellipse cx="11.5" cy="17.23" rx="4.22999" ry="7.5" transform="rotate(-90 11.5 17.23)" fill="#FE9844"/>
</svg>
