<svg width="14" height="22" viewBox="0 0 14 22" fill="none" xmlns="http://www.w3.org/2000/svg">
<path d="M1.5698 17.6557C1.162 17.2479 0.950083 16.6839 0.988446 16.1085L1.06066 15.0253L2.14387 14.9531C2.71932 14.9147 3.28332 15.1266 3.69112 15.5344L5.50126 17.3446C5.90907 17.7524 6.12098 18.3164 6.08262 18.8918L6.01041 19.975L4.9272 20.0472C4.35175 20.0856 3.78775 19.8737 3.37994 19.4659L1.5698 17.6557Z" fill="#FE9844"/>
<path d="M1.5698 7.6909C1.162 7.28309 0.950083 6.71909 0.988446 6.14365L1.06066 5.06043L2.14387 4.98822C2.71932 4.94986 3.28332 5.16177 3.69112 5.56958L5.50126 7.37972C5.90907 7.78752 6.12098 8.35152 6.08262 8.92697L6.01041 10.0102L4.9272 10.0824C4.35175 10.1208 3.78775 9.90884 3.37994 9.50104L1.5698 7.6909Z" fill="#FE9844"/>
<path d="M1.5698 12.6909C1.162 12.2831 0.950083 11.7191 0.988446 11.1436L1.06066 10.0604L2.14387 9.98822C2.71932 9.94986 3.28332 10.1618 3.69112 10.5696L5.50126 12.3797C5.90907 12.7875 6.12098 13.3515 6.08262 13.927L6.01041 15.0102L4.9272 15.0824C4.35175 15.1208 3.78775 14.9088 3.37994 14.501L1.5698 12.6909Z" fill="#FE9844"/>
<path d="M11.5015 17.6557C11.9093 17.2479 12.1212 16.6839 12.0828 16.1085L12.0106 15.0253L10.9274 14.9531C10.352 14.9147 9.78797 15.1266 9.38017 15.5344L7.57002 17.3446C7.16222 17.7524 6.9503 18.3164 6.98867 18.8918L7.06088 19.975L8.14409 20.0472C8.71954 20.0856 9.28354 19.8737 9.69134 19.4659L11.5015 17.6557Z" fill="#FE9844"/>
<path d="M8 2.22004C8 1.64331 7.75104 1.09466 7.31701 0.714883L6.5 1.31134e-07L5.68299 0.714883C5.24896 1.09466 5 1.64331 5 2.22004L5 4.77996C5 5.35669 5.24896 5.90534 5.68299 6.28512L6.5 7L7.31701 6.28512C7.75104 5.90534 8 5.35669 8 4.77996L8 2.22004Z" fill="#FE9844"/>
<path d="M11.5015 7.6909C11.9093 7.28309 12.1212 6.71909 12.0828 6.14365L12.0106 5.06043L10.9274 4.98822C10.352 4.94986 9.78797 5.16177 9.38017 5.56958L7.57002 7.37972C7.16222 7.78752 6.9503 8.35152 6.98867 8.92697L7.06088 10.0102L8.14409 10.0824C8.71954 10.1208 9.28354 9.90884 9.69134 9.50104L11.5015 7.6909Z" fill="#FE9844"/>
<path d="M11.5015 12.6909C11.9093 12.2831 12.1212 11.7191 12.0828 11.1436L12.0106 10.0604L10.9274 9.98822C10.352 9.94986 9.78797 10.1618 9.38017 10.5696L7.57002 12.3797C7.16222 12.7875 6.9503 13.3515 6.98867 13.927L7.06088 15.0102L8.14409 15.0824C8.71954 15.1208 9.28354 14.9088 9.69134 14.501L11.5015 12.6909Z" fill="#FE9844"/>
<rect x="6" y="20" width="1" height="2" rx="0.5" fill="#FE9844"/>
</svg>
