<svg width="33" height="28" viewBox="0 0 33 28" fill="none" xmlns="http://www.w3.org/2000/svg">
<path d="M3.02148 4.83301L16.3124 10.8743V27.79L3.72976 22.0706C3.29842 21.8746 3.02148 21.4445 3.02148 20.9707V4.83301Z" fill="#FE9844"/>
<path d="M16.3124 10.8743L29.6032 4.83301V20.1926C29.6032 21.1403 29.0494 22.0004 28.1867 22.3926L16.3124 27.79V10.8743Z" fill="#FFC392"/>
<path d="M16.3124 0L29.6032 4.83305L16.3124 10.8756L3.02148 4.83305L16.3124 0Z" fill="#CB7026"/>
<path d="M3.04791 4.83105L16.3388 10.8724L14.1557 15.2011C13.6725 16.1593 12.5193 16.5653 11.5424 16.1213L1.89594 11.7365C0.861482 11.2663 0.426114 10.0298 0.937785 9.0152L3.04791 4.83105Z" fill="#FFC392"/>
<path d="M29.6025 4.83301L16.3116 10.8743L18.4947 15.2031C18.9779 16.1612 20.1311 16.5673 21.108 16.1232L30.7545 11.7385C31.7889 11.2683 32.2243 10.0317 31.7126 9.01715L29.6025 4.83301Z" fill="#FE9844"/>
</svg>
