<svg width="180" height="139" viewBox="0 0 180 139" fill="none" xmlns="http://www.w3.org/2000/svg">
<path d="M57 119.779H122V129C122 134.522 117.523 139 112 139H67C61.4772 139 57 134.522 57 129V119.779Z" fill="#C8C8C8"/>
<path d="M0 76H180C180 106.666 155.14 131.525 124.475 131.525H55.5254C24.8596 131.525 0 106.666 0 76Z" fill="#D0D0D0"/>
<ellipse cx="90" cy="76.5" rx="90" ry="17.5" fill="#B9B9B9"/>
<path d="M66.8996 38.1838C67.5718 37.865 68.0948 37.2988 68.3593 36.6035C68.6239 35.9081 68.6094 35.1375 68.319 34.4526L57.6027 9.1835C57.4509 8.82557 57.2283 8.50204 56.9483 8.23235C56.6683 7.96266 56.3366 7.75238 55.9732 7.61416C55.6098 7.47594 55.2223 7.41264 54.8338 7.42805C54.4453 7.44346 54.064 7.53727 53.7127 7.70384L51.6481 8.6828C51.2968 8.84937 50.9829 9.08525 50.7251 9.37626C50.4673 9.66727 50.271 10.0074 50.148 10.3762C50.0251 10.745 49.978 11.1349 50.0095 11.5224C50.0411 11.9099 50.1507 12.287 50.3317 12.631L63.1124 36.921C63.4588 37.5794 64.0463 38.0784 64.7521 38.3137C65.4579 38.5491 66.2273 38.5025 66.8996 38.1838Z" fill="#FE9844"/>
<path d="M97.5126 30.5967C97.9995 30.6264 98.479 30.4669 98.8509 30.1514C99.2229 29.8359 99.4586 29.3889 99.5088 28.9037L101.354 11.0014C101.38 10.7478 101.354 10.4916 101.279 10.2481C101.203 10.0046 101.08 9.77884 100.915 9.58443C100.75 9.39003 100.547 9.23098 100.319 9.11685C100.091 9.00271 99.8427 8.93584 99.5883 8.92026L98.0926 8.82895C97.8383 8.8134 97.5834 8.84944 97.3433 8.9349C97.1032 9.02035 96.8829 9.15346 96.6956 9.32623C96.5082 9.499 96.3578 9.70785 96.2532 9.94025C96.1486 10.1726 96.0921 10.4238 96.087 10.6786L95.7378 28.6723C95.7282 29.1601 95.9075 29.6327 96.2383 29.9914C96.569 30.35 97.0257 30.5669 97.5126 30.5967V30.5967Z" fill="#FE9844"/>
<path d="M81.9892 30.7561C82.4546 30.6102 82.8456 30.2901 83.0806 29.8627C83.3155 29.4353 83.3762 28.9336 83.25 28.4624L78.5865 11.08C78.5204 10.8338 78.4052 10.6035 78.2479 10.4029C78.0905 10.2024 77.8943 10.0357 77.6708 9.91292C77.4474 9.79014 77.2015 9.71381 76.9478 9.68851C76.6942 9.6632 76.438 9.68945 76.1948 9.76567L74.765 10.214C74.5218 10.2902 74.2965 10.4148 74.1027 10.5803C73.909 10.7458 73.7506 10.9487 73.6372 11.177C73.5239 11.4052 73.4578 11.654 73.443 11.9084C73.4283 12.1628 73.4651 12.4176 73.5512 12.6574L79.6446 29.5917C79.8097 30.0508 80.1458 30.4283 80.5828 30.6453C81.0197 30.8624 81.5236 30.9021 81.9892 30.7561V30.7561Z" fill="#FE9844"/>
<path d="M106.62 37.5393C107.958 38.313 109.837 37.603 110.879 35.9295L129.381 6.21576C130.486 4.44069 130.224 2.2772 128.805 1.45658L126.826 0.312902C125.407 -0.507872 123.401 0.344388 122.414 2.18779L105.891 33.0451C104.96 34.783 105.282 36.7655 106.62 37.5393Z" fill="#FE9844"/>
<mask id="mask0_2394_1372" style="mask-type:alpha" maskUnits="userSpaceOnUse" x="0" y="59" width="180" height="80">
<path d="M57 119.779H122V129C122 134.522 117.523 139 112 139H67C61.4772 139 57 134.522 57 129V119.779Z" fill="#B9B9B9"/>
<path d="M0 76H180C180 106.666 155.14 131.525 124.475 131.525H55.5254C24.8596 131.525 0 106.666 0 76Z" fill="#B1B1B1"/>
<ellipse cx="90" cy="76.5" rx="90" ry="17.5" fill="#740104"/>
</mask>
<g mask="url(#mask0_2394_1372)">
<ellipse cx="156" cy="106.5" rx="70" ry="68.5" fill="white" fill-opacity="0.2"/>
</g>
</svg>
