<svg width="173" height="138" viewBox="0 0 173 138" fill="none" xmlns="http://www.w3.org/2000/svg">
<circle cx="86.4934" cy="59.9104" r="13.299" stroke="#D9D9D9" stroke-width="8"/>
<path d="M86.4922 56.4492C129.805 56.4493 165.036 87.2726 166.067 125.644H6.91602C7.9471 87.2725 43.1797 56.4492 86.4922 56.4492Z" fill="#B9B9B9"/>
<mask id="mask0_2921_531" style="mask-type:alpha" maskUnits="userSpaceOnUse" x="6" y="56" width="161" height="70">
<path d="M86.4902 56.4492C129.803 56.4493 165.034 87.2726 166.065 125.644H6.91406C7.94514 87.2725 43.1778 56.4492 86.4902 56.4492Z" fill="#B9B9B9"/>
</mask>
<g mask="url(#mask0_2921_531)">
<ellipse cx="133.199" cy="94.5072" rx="57.0855" ry="51.8959" fill="white" fill-opacity="0.2"/>
</g>
<path d="M2.59334 128.248C1.54749 126.938 2.48011 125 4.15625 125H168.844C170.52 125 171.453 126.938 170.407 128.248L163.221 137.248C162.841 137.723 162.266 138 161.658 138H11.3424C10.7342 138 10.159 137.723 9.7795 137.248L2.59334 128.248Z" fill="#A0A0A0"/>
<path d="M63.8996 38.1838C64.5718 37.865 65.0948 37.2988 65.3593 36.6035C65.6239 35.9081 65.6094 35.1375 65.319 34.4526L54.6027 9.1835C54.4509 8.82557 54.2283 8.50204 53.9483 8.23235C53.6683 7.96266 53.3366 7.75238 52.9732 7.61416C52.6098 7.47594 52.2223 7.41264 51.8338 7.42805C51.4453 7.44346 51.064 7.53727 50.7127 7.70384L48.6481 8.6828C48.2968 8.84937 47.9829 9.08525 47.7251 9.37626C47.4673 9.66727 47.271 10.0074 47.148 10.3762C47.0251 10.745 46.978 11.1349 47.0095 11.5224C47.0411 11.9099 47.1507 12.287 47.3317 12.631L60.1124 36.921C60.4588 37.5794 61.0463 38.0784 61.7521 38.3137C62.4579 38.5491 63.2273 38.5025 63.8996 38.1838Z" fill="#FE9844"/>
<path d="M94.5126 30.5967C94.9995 30.6264 95.479 30.4669 95.8509 30.1514C96.2229 29.8359 96.4586 29.3889 96.5088 28.9037L98.3537 11.0014C98.3798 10.7478 98.3544 10.4916 98.2789 10.2481C98.2035 10.0046 98.0796 9.77884 97.9147 9.58443C97.7498 9.39003 97.5473 9.23098 97.3193 9.11685C97.0914 9.00271 96.8427 8.93584 96.5883 8.92026L95.0926 8.82895C94.8383 8.8134 94.5834 8.84944 94.3433 8.9349C94.1032 9.02035 93.8829 9.15346 93.6956 9.32623C93.5082 9.499 93.3578 9.70785 93.2532 9.94025C93.1486 10.1726 93.0921 10.4238 93.087 10.6786L92.7378 28.6723C92.7282 29.1601 92.9075 29.6327 93.2383 29.9914C93.569 30.35 94.0257 30.5669 94.5126 30.5967V30.5967Z" fill="#FE9844"/>
<path d="M78.9892 30.7561C79.4546 30.6102 79.8456 30.2901 80.0806 29.8627C80.3155 29.4353 80.3762 28.9336 80.25 28.4624L75.5865 11.08C75.5204 10.8338 75.4052 10.6035 75.2479 10.4029C75.0905 10.2024 74.8943 10.0357 74.6708 9.91292C74.4474 9.79014 74.2015 9.71381 73.9478 9.68851C73.6942 9.6632 73.438 9.68945 73.1948 9.76567L71.765 10.214C71.5218 10.2902 71.2965 10.4148 71.1027 10.5803C70.909 10.7458 70.7506 10.9487 70.6372 11.177C70.5239 11.4052 70.4578 11.654 70.443 11.9084C70.4283 12.1628 70.4651 12.4176 70.5512 12.6574L76.6446 29.5917C76.8097 30.0508 77.1458 30.4283 77.5828 30.6453C78.0197 30.8624 78.5236 30.9021 78.9892 30.7561V30.7561Z" fill="#FE9844"/>
<path d="M103.62 37.5393C104.958 38.313 106.837 37.603 107.879 35.9295L126.381 6.21576C127.486 4.44069 127.224 2.2772 125.805 1.45658L123.826 0.312902C122.407 -0.507872 120.401 0.344388 119.414 2.18779L102.891 33.0451C101.96 34.783 102.282 36.7655 103.62 37.5393Z" fill="#FE9844"/>
</svg>
