<svg width="201" height="170" viewBox="0 0 201 170" fill="none" xmlns="http://www.w3.org/2000/svg">
<g filter="url(#filter0_d_1609_136)">
<path d="M4.48291 155.467C3.37418 154.169 4.29657 152.168 6.00366 152.168H194.451C196.158 152.168 197.081 154.169 195.972 155.467L191.175 161.083C190.795 161.528 190.239 161.784 189.654 161.784H10.8005C10.2155 161.784 9.65976 161.528 9.27978 161.083L4.48291 155.467Z" fill="#B9B9B9"/>
<circle cx="100.227" cy="66.8277" r="14.3277" stroke="#B9B9B9" stroke-width="5"/>
<path d="M7.6748 152.168C7.6748 102.38 48.0357 62.0195 97.8233 62.0195H101.429C151.217 62.0195 191.578 102.38 191.578 152.168H7.6748Z" fill="#D9D9D9"/>
</g>
<mask id="mask0_1609_136" style="mask-type:alpha" maskUnits="userSpaceOnUse" x="4" y="50" width="193" height="112">
<path d="M4.48291 155.467C3.37418 154.169 4.29657 152.168 6.00366 152.168H194.451C196.158 152.168 197.081 154.169 195.972 155.467L191.175 161.083C190.795 161.528 190.239 161.784 189.654 161.784H10.8005C10.2155 161.784 9.65976 161.528 9.27978 161.083L4.48291 155.467Z" fill="#B9B9B9"/>
<circle cx="100.227" cy="66.8277" r="14.3277" stroke="#B9B9B9" stroke-width="5"/>
<path d="M7.6748 152.168C7.6748 102.38 48.0357 62.0195 97.8233 62.0195H101.429C151.217 62.0195 191.578 102.38 191.578 152.168H7.6748Z" fill="#D9D9D9"/>
</mask>
<g mask="url(#mask0_1609_136)">
<circle cx="171.144" cy="104.089" r="73.3208" fill="white" fill-opacity="0.2"/>
</g>
<g filter="url(#filter1_d_1609_136)">
<path d="M77.5646 38.1838C78.2369 37.865 78.7599 37.2988 79.0244 36.6035C79.2889 35.9081 79.2744 35.1375 78.984 34.4526L68.2677 9.1835C68.1159 8.82557 67.8933 8.50204 67.6133 8.23235C67.3333 7.96266 67.0016 7.75238 66.6382 7.61416C66.2749 7.47594 65.8873 7.41264 65.4988 7.42805C65.1103 7.44346 64.729 7.53727 64.3777 7.70384L62.3132 8.6828C61.9619 8.84937 61.6479 9.08525 61.3901 9.37626C61.1323 9.66727 60.9361 10.0074 60.8131 10.3762C60.6901 10.745 60.643 11.1349 60.6746 11.5224C60.7061 11.9099 60.8157 12.287 60.9967 12.631L73.7774 36.921C74.1239 37.5794 74.7114 38.0784 75.4172 38.3137C76.123 38.5491 76.8924 38.5025 77.5646 38.1838Z" fill="#FE9844"/>
<path d="M108.178 30.5967C108.664 30.6264 109.144 30.4669 109.516 30.1514C109.888 29.8359 110.124 29.3889 110.174 28.9037L112.019 11.0014C112.045 10.7478 112.019 10.4916 111.944 10.2481C111.869 10.0046 111.745 9.77884 111.58 9.58443C111.415 9.39003 111.212 9.23098 110.984 9.11685C110.756 9.00271 110.508 8.93584 110.253 8.92026L108.758 8.82895C108.503 8.8134 108.248 8.84944 108.008 8.9349C107.768 9.02035 107.548 9.15346 107.361 9.32623C107.173 9.499 107.023 9.70785 106.918 9.94025C106.814 10.1726 106.757 10.4238 106.752 10.6786L106.403 28.6723C106.393 29.1601 106.573 29.6327 106.903 29.9914C107.234 30.35 107.691 30.5669 108.178 30.5967V30.5967Z" fill="#FE9844"/>
<path d="M92.6542 30.7561C93.1196 30.6102 93.5107 30.2901 93.7456 29.8627C93.9806 29.4353 94.0413 28.9336 93.915 28.4624L89.2515 11.08C89.1854 10.8338 89.0703 10.6035 88.9129 10.4029C88.7556 10.2024 88.5593 10.0357 88.3359 9.91292C88.1125 9.79014 87.8665 9.71381 87.6129 9.68851C87.3592 9.6632 87.1031 9.68945 86.8598 9.76567L85.43 10.214C85.1868 10.2902 84.9616 10.4148 84.7678 10.5803C84.574 10.7458 84.4157 10.9487 84.3023 11.177C84.1889 11.4052 84.1229 11.654 84.1081 11.9084C84.0933 12.1628 84.1301 12.4176 84.2163 12.6574L90.3096 29.5917C90.4747 30.0508 90.8108 30.4283 91.2478 30.6453C91.6847 30.8624 92.1887 30.9021 92.6542 30.7561V30.7561Z" fill="#FE9844"/>
<path d="M117.285 37.5393C118.623 38.313 120.502 37.603 121.544 35.9295L140.046 6.21576C141.151 4.44069 140.889 2.2772 139.47 1.45658L137.491 0.312902C136.072 -0.507872 134.066 0.344388 133.079 2.18779L116.556 33.0451C115.625 34.783 115.947 36.7655 117.285 37.5393Z" fill="#FE9844"/>
</g>
<defs>
<filter id="filter0_d_1609_136" x="0" y="50" width="200.455" height="119.784" filterUnits="userSpaceOnUse" color-interpolation-filters="sRGB">
<feFlood flood-opacity="0" result="BackgroundImageFix"/>
<feColorMatrix in="SourceAlpha" type="matrix" values="0 0 0 0 0 0 0 0 0 0 0 0 0 0 0 0 0 0 127 0" result="hardAlpha"/>
<feOffset dy="4"/>
<feGaussianBlur stdDeviation="2"/>
<feComposite in2="hardAlpha" operator="out"/>
<feColorMatrix type="matrix" values="0 0 0 0 0 0 0 0 0 0 0 0 0 0 0 0 0 0 0.25 0"/>
<feBlend mode="normal" in2="BackgroundImageFix" result="effect1_dropShadow_1609_136"/>
<feBlend mode="normal" in="SourceGraphic" in2="effect1_dropShadow_1609_136" result="shape"/>
</filter>
<filter id="filter1_d_1609_136" x="56.665" y="0" width="88.0654" height="46.4619" filterUnits="userSpaceOnUse" color-interpolation-filters="sRGB">
<feFlood flood-opacity="0" result="BackgroundImageFix"/>
<feColorMatrix in="SourceAlpha" type="matrix" values="0 0 0 0 0 0 0 0 0 0 0 0 0 0 0 0 0 0 127 0" result="hardAlpha"/>
<feOffset dy="4"/>
<feGaussianBlur stdDeviation="2"/>
<feComposite in2="hardAlpha" operator="out"/>
<feColorMatrix type="matrix" values="0 0 0 0 0 0 0 0 0 0 0 0 0 0 0 0 0 0 0.25 0"/>
<feBlend mode="normal" in2="BackgroundImageFix" result="effect1_dropShadow_1609_136"/>
<feBlend mode="normal" in="SourceGraphic" in2="effect1_dropShadow_1609_136" result="shape"/>
</filter>
</defs>
</svg>
