<svg width="192" height="146" viewBox="0 0 192 146" fill="none" xmlns="http://www.w3.org/2000/svg">
<path d="M74.3362 35.7065C74.9648 35.4084 75.4539 34.8789 75.7012 34.2287C75.9486 33.5785 75.935 32.8578 75.6635 32.2174L65.6425 8.588C65.5006 8.2533 65.2925 7.95075 65.0306 7.69856C64.7688 7.44637 64.4586 7.24974 64.1188 7.12049C63.779 6.99124 63.4166 6.93204 63.0533 6.94646C62.6901 6.96087 62.3335 7.04859 62.005 7.20436L60.0744 8.11979C59.7459 8.27555 59.4523 8.49612 59.2112 8.76825C58.9702 9.04038 58.7866 9.35844 58.6716 9.70332C58.5567 10.0482 58.5126 10.4128 58.5421 10.7751C58.5716 11.1374 58.6741 11.4901 58.8434 11.8118L70.7947 34.5256C71.1187 35.1413 71.6681 35.6079 72.3281 35.828C72.9881 36.0481 73.7076 36.0045 74.3362 35.7065Z" fill="#FE9844"/>
<path d="M102.963 28.6112C103.418 28.639 103.866 28.4898 104.214 28.1948C104.562 27.8998 104.782 27.4818 104.829 27.0281L106.554 10.2875C106.579 10.0504 106.555 9.81075 106.485 9.58305C106.414 9.35534 106.298 9.14425 106.144 8.96246C105.99 8.78067 105.8 8.63195 105.587 8.52521C105.374 8.41848 105.142 8.35595 104.904 8.34138L103.505 8.256C103.267 8.24146 103.029 8.27516 102.804 8.35507C102.58 8.43498 102.374 8.55946 102.199 8.72101C102.023 8.88257 101.883 9.07787 101.785 9.29519C101.687 9.5125 101.634 9.74734 101.63 9.98559L101.303 26.8118C101.294 27.2679 101.462 27.7099 101.771 28.0452C102.08 28.3806 102.507 28.5834 102.963 28.6112Z" fill="#FE9844"/>
<path d="M88.4469 28.7608C88.8821 28.6244 89.2478 28.325 89.4675 27.9253C89.6872 27.5256 89.7439 27.0565 89.6259 26.6159L85.265 10.3615C85.2032 10.1312 85.0955 9.91585 84.9484 9.7283C84.8012 9.54075 84.6177 9.38488 84.4088 9.27007C84.1999 9.15526 83.9699 9.08388 83.7327 9.06022C83.4955 9.03656 83.2559 9.0611 83.0285 9.13238L81.6915 9.55159C81.4641 9.62287 81.2534 9.73938 81.0722 9.89413C80.891 10.0489 80.7429 10.2387 80.6369 10.4521C80.5309 10.6655 80.4691 10.8982 80.4553 11.1361C80.4415 11.374 80.4759 11.6122 80.5565 11.8365L86.2545 27.6719C86.4088 28.1012 86.7231 28.4542 87.1317 28.6572C87.5403 28.8601 88.0116 28.8972 88.4469 28.7608Z" fill="#FE9844"/>
<path d="M111.479 35.1034C112.73 35.8269 114.487 35.163 115.461 33.5981L132.762 5.81243C133.796 4.15253 133.551 2.12944 132.224 1.36206L130.374 0.292598C129.046 -0.474917 127.171 0.322041 126.248 2.04582L110.797 30.9008C109.927 32.526 110.227 34.3798 111.479 35.1034Z" fill="#FE9844"/>
<path d="M15 57C15 54.2386 17.2386 52 20 52H114V146H30C21.7157 146 15 139.284 15 131V57Z" fill="#D0CECE"/>
<path d="M96 52H173C175.761 52 178 54.2386 178 57V131C178 139.284 171.284 146 163 146H111C102.716 146 96 139.284 96 131V52Z" fill="#E5E5E5"/>
<path d="M13.5345 54.8344C14.3671 53.1019 16.119 52 18.0412 52H96L83.8275 77.3312C82.1624 80.7962 78.6585 83 74.8141 83H15.9C8.53459 83 3.69652 75.3075 6.88664 68.6688L13.5345 54.8344Z" fill="#E5E5E5"/>
<rect x="38.6914" y="118.05" width="24.8021" height="8.92875" rx="4.46438" fill="#B7B7B7"/>
<rect x="131.946" y="118.05" width="24.8021" height="8.92875" rx="4.46438" fill="#B7B7B7"/>
<path d="M178.465 54.8344C177.633 53.1019 175.881 52 173.959 52H96L108.173 77.3312C109.838 80.7962 113.342 83 117.186 83H176.1C183.465 83 188.303 75.3075 185.113 68.6688L178.465 54.8344Z" fill="#D0CECE"/>
</svg>
