<svg width="149" height="138" viewBox="0 0 149 138" fill="none" xmlns="http://www.w3.org/2000/svg">
<path d="M128.345 122.221L87.3662 81.7285L79.2518 89.9404L120.23 130.433L128.345 122.221Z" fill="#B7B7B7"/>
<path d="M51.0463 102.093C79.2384 102.093 102.093 79.2384 102.093 51.0463C102.093 22.8542 79.2384 0 51.0463 0C22.8542 0 0 22.8542 0 51.0463C0 79.2384 22.8542 102.093 51.0463 102.093Z" fill="#D0CECE"/>
<path d="M51.0463 93.7644C74.6383 93.7644 93.7634 74.6393 93.7634 51.0472C93.7634 27.4552 74.6383 8.33008 51.0463 8.33008C27.4542 8.33008 8.3291 27.4552 8.3291 51.0472C8.3291 74.6393 27.4542 93.7644 51.0463 93.7644Z" fill="#E5E5E5"/>
<path d="M134.721 37.7144C124.351 34.3533 113.145 40.038 109.77 50.4502C106.409 60.8197 112.094 72.026 122.506 75.4008C132.918 78.7755 144.095 73.0351 147.457 62.665C150.819 52.2949 145.091 41.0755 134.721 37.7144Z" fill="#FE9844"/>
<line x1="134.191" y1="51.7014" x2="123.759" y2="62.1343" stroke="white" stroke-width="3" stroke-linecap="round"/>
<line x1="133.864" y1="62.1367" x2="123.431" y2="51.7038" stroke="white" stroke-width="3" stroke-linecap="round"/>
<path d="M76.7626 110.437C71.3976 108.699 65.5996 111.639 63.8535 117.026C62.1145 122.391 65.0557 128.188 70.4429 129.934C75.8301 131.68 81.6129 128.71 83.3523 123.345C85.0916 117.98 82.128 112.176 76.7626 110.437Z" fill="#FE9844"/>
<line x1="70.33" y1="118.031" x2="76.324" y2="121.992" stroke="white" stroke-width="2" stroke-linecap="round"/>
<line x1="75.679" y1="116.925" x2="71.2291" y2="122.977" stroke="white" stroke-width="2" stroke-linecap="round"/>
<rect x="103.739" y="93.6719" width="45.395" height="17.2933" rx="5" transform="rotate(45 103.739 93.6719)" fill="#D0CECE"/>
</svg>
