<svg width="182" height="210" viewBox="0 0 182 210" fill="none" xmlns="http://www.w3.org/2000/svg">
<path d="M55.4256 72.3204C55.4256 64.6224 63.759 59.8112 70.4256 63.6602L148.363 108.658C155.607 112.839 154.821 123.536 147.045 126.615L105.567 143.04L71.658 170.064C65.1074 175.284 55.4256 170.62 55.4256 162.243L55.4256 72.3204Z" fill="#D9D9D9"/>
<path d="M95.6016 146.041L114.182 135.313L133.137 168.145C134.518 170.536 133.699 173.594 131.307 174.975L121.387 180.702C118.995 182.083 115.937 181.264 114.557 178.872L95.6016 146.041Z" fill="#D9D9D9"/>
<mask id="mask0_2637_3743" style="mask-type:alpha" maskUnits="userSpaceOnUse" x="55" y="62" width="99" height="120">
<path d="M55.4256 72.3204C55.4256 64.6224 63.759 59.8112 70.4256 63.6602L148.363 108.658C155.607 112.839 154.821 123.536 147.045 126.615L105.567 143.04L71.658 170.064C65.1074 175.284 55.4256 170.62 55.4256 162.243L55.4256 72.3204Z" fill="#D9D9D9"/>
<path d="M95.6016 146.041L114.182 135.313L133.137 168.145C134.518 170.536 133.699 173.594 131.307 174.975L121.387 180.702C118.995 182.083 115.937 181.264 114.557 178.872L95.6016 146.041Z" fill="#D9D9D9"/>
</mask>
<g mask="url(#mask0_2637_3743)">
<rect x="48.2754" y="42.6122" width="89.3962" height="195.48" transform="rotate(-30 48.2754 42.6122)" fill="white" fill-opacity="0.2"/>
</g>
<path d="M36.7274 64.6512C37.1502 64.039 37.32 63.2872 37.2014 62.5528C37.0828 61.8183 36.6849 61.1581 36.091 60.7102L14.1759 44.1847C13.8655 43.9506 13.5109 43.7817 13.1336 43.6882C12.7562 43.5946 12.3638 43.5784 11.98 43.6403C11.5962 43.7023 11.2289 43.8413 10.9002 44.0489C10.5715 44.2565 10.2881 44.5284 10.0672 44.8483L8.76872 46.7284C8.54778 47.0482 8.39382 47.4095 8.31607 47.7904C8.23833 48.1713 8.23842 48.564 8.31633 48.9449C8.39424 49.3258 8.54836 49.687 8.76944 50.0068C8.99052 50.3266 9.27398 50.5984 9.60278 50.8058L32.8162 65.4512C33.4454 65.8482 34.2037 65.9866 34.9326 65.8375C35.6615 65.6884 36.3046 65.2633 36.7274 64.6512Z" fill="#FE9844"/>
<path d="M59.446 42.7742C59.8824 42.5565 60.2179 42.1786 60.3823 41.7194C60.5467 41.2602 60.5273 40.7552 60.3282 40.31L52.9748 23.8837C52.8706 23.651 52.7204 23.4418 52.5334 23.2687C52.3463 23.0955 52.1261 22.9619 51.8861 22.876C51.6461 22.7901 51.3912 22.7536 51.1367 22.7688C50.8822 22.7839 50.6334 22.8503 50.4053 22.964L49.0644 23.6328C48.8363 23.7465 48.6336 23.9052 48.4684 24.0992C48.3032 24.2933 48.179 24.5187 48.1031 24.762C48.0273 25.0053 48.0014 25.2614 48.027 25.5149C48.0527 25.7685 48.1293 26.0142 48.2523 26.2374L56.9467 41.9951C57.1823 42.4223 57.5739 42.742 58.0397 42.8872C58.5055 43.0324 59.0093 42.9919 59.446 42.7742Z" fill="#FE9844"/>
<path d="M46.0825 50.6736C46.4126 50.3146 46.5912 49.8418 46.581 49.3542C46.5707 48.8665 46.3724 48.4017 46.0276 48.0568L33.2976 35.335C33.1173 35.1548 32.9024 35.0129 32.6659 34.9179C32.4293 34.8229 32.176 34.7767 31.9211 34.782C31.6663 34.7874 31.4151 34.8443 31.1828 34.9492C30.9504 35.0541 30.7417 35.2049 30.5692 35.3926L29.5551 36.4957C29.3826 36.6833 29.2498 36.9038 29.1647 37.144C29.0797 37.3842 29.044 37.6392 29.0599 37.8935C29.0759 38.1479 29.1431 38.3964 29.2575 38.6241C29.3719 38.8518 29.5311 39.054 29.7257 39.2186L43.4698 50.8374C43.8423 51.1525 44.3222 51.3114 44.8091 51.2809C45.296 51.2503 45.7523 51.0328 46.0825 50.6736Z" fill="#FE9844"/>
<path d="M70.8049 44.2321C72.3507 44.233 73.6227 42.6788 73.6883 40.7086L74.8542 5.72488C74.9238 3.63501 73.6153 1.8923 71.9758 1.8913L69.6906 1.89006C68.051 1.88892 66.7401 3.62987 66.8071 5.71979L67.9261 40.7047C67.9892 42.675 69.259 44.231 70.8049 44.2321Z" fill="#FE9844"/>
</svg>
