<svg width="58" height="94" viewBox="0 0 58 94" fill="none" xmlns="http://www.w3.org/2000/svg">
<path d="M18.4529 17.1855C18.7555 17.042 18.9909 16.7872 19.1099 16.4742C19.229 16.1612 19.2225 15.8144 19.0917 15.5061L14.2685 4.13292C14.2002 3.97182 14.1 3.8262 13.974 3.70482C13.848 3.58344 13.6987 3.48879 13.5351 3.42658C13.3716 3.36437 13.1971 3.33588 13.0223 3.34282C12.8474 3.34975 12.6758 3.39198 12.5177 3.46695L11.5885 3.90756C11.4304 3.98253 11.2891 4.08869 11.173 4.21967C11.057 4.35065 10.9687 4.50374 10.9133 4.66974C10.858 4.83573 10.8368 5.01121 10.851 5.18561C10.8652 5.36001 10.9145 5.52974 10.996 5.68459L16.7484 16.6171C16.9043 16.9134 17.1687 17.138 17.4864 17.2439C17.804 17.3499 18.1503 17.3289 18.4529 17.1855Z" fill="#FE9844"/>
<path d="M32.2318 13.7733C32.4509 13.7867 32.6667 13.7149 32.8342 13.5729C33.0016 13.4309 33.1077 13.2297 33.1302 13.0114L33.9606 4.95383C33.9723 4.83969 33.9609 4.72436 33.9269 4.61476C33.893 4.50516 33.8372 4.40356 33.763 4.31607C33.6888 4.22857 33.5976 4.15698 33.495 4.10561C33.3925 4.05424 33.2805 4.02414 33.166 4.01713L32.4928 3.97603C32.3784 3.96904 32.2636 3.98526 32.1556 4.02372C32.0475 4.06218 31.9484 4.12209 31.8641 4.19985C31.7797 4.27761 31.712 4.37161 31.6649 4.47621C31.6179 4.58081 31.5924 4.69384 31.5902 4.80852L31.433 12.9072C31.4287 13.1268 31.5094 13.3395 31.6582 13.5009C31.8071 13.6623 32.0126 13.7599 32.2318 13.7733V13.7733Z" fill="#FE9844"/>
<path d="M25.2452 13.8426C25.4546 13.7769 25.6306 13.6328 25.7364 13.4405C25.8421 13.2481 25.8694 13.0223 25.8126 12.8102L23.7136 4.9867C23.6839 4.87588 23.6321 4.77222 23.5612 4.68195C23.4904 4.59168 23.4021 4.51666 23.3015 4.4614C23.201 4.40614 23.0903 4.37178 22.9761 4.36039C22.862 4.34901 22.7467 4.36082 22.6372 4.39513L21.9936 4.5969C21.8842 4.63121 21.7828 4.68729 21.6956 4.76177C21.6084 4.83625 21.5371 4.9276 21.4861 5.03032C21.4351 5.13305 21.4053 5.24502 21.3987 5.35953C21.392 5.47404 21.4086 5.5887 21.4474 5.69664L24.1899 13.3185C24.2642 13.5251 24.4155 13.695 24.6121 13.7927C24.8088 13.8904 25.0356 13.9083 25.2452 13.8426V13.8426Z" fill="#FE9844"/>
<path d="M36.3302 16.8958C36.9325 17.244 37.778 16.9245 38.247 16.1713L46.5742 2.79761C47.0717 1.99868 46.9538 1.02493 46.315 0.655581L45.4245 0.140832C44.7857 -0.228585 43.883 0.155004 43.4387 0.984687L36.0019 14.8731C35.583 15.6553 35.7278 16.5475 36.3302 16.8958Z" fill="#FE9844"/>
<path d="M1.78711 31.0371H55.3726L52.3355 84.5666C52.0351 89.8608 47.6543 94.0001 42.3515 94.0001H15.1881C9.91254 94.0001 5.54444 89.9019 5.20838 84.6371L1.78711 31.0371Z" fill="#D9D9D9"/>
<rect x="26.3467" y="41.7539" width="4.46546" height="41.9753" rx="2.23273" fill="#B7B7B7"/>
<rect x="14.29" y="41.7539" width="4.46546" height="41.9753" rx="2.23273" fill="#B7B7B7"/>
<rect x="38.4033" y="41.7539" width="4.46546" height="41.9753" rx="2.23273" fill="#B7B7B7"/>
<circle cx="28.579" cy="25.6787" r="4.69819" stroke="#8A8A8A" stroke-width="4"/>
<rect y="25.6797" width="57.1579" height="6.69819" rx="3.34909" fill="#B9B9B9"/>
<mask id="mask0_2582_500" style="mask-type:alpha" maskUnits="userSpaceOnUse" x="0" y="18" width="58" height="76">
<path d="M1.78711 31.0371H55.3726L52.3355 84.5666C52.0351 89.8608 47.6543 94.0001 42.3515 94.0001H15.1881C9.91254 94.0001 5.54444 89.9019 5.20838 84.6371L1.78711 31.0371Z" fill="#D9D9D9"/>
<rect x="26.3467" y="41.7539" width="4.46546" height="41.9753" rx="2.23273" fill="#B7B7B7"/>
<rect x="14.29" y="41.7539" width="4.46546" height="41.9753" rx="2.23273" fill="#B7B7B7"/>
<rect x="38.4033" y="41.7539" width="4.46546" height="41.9753" rx="2.23273" fill="#B7B7B7"/>
<circle cx="28.579" cy="25.6787" r="4.69819" stroke="#8A8A8A" stroke-width="4"/>
<rect y="25.6797" width="57.1579" height="6.69819" rx="3.34909" fill="#B9B9B9"/>
</mask>
<g mask="url(#mask0_2582_500)">
<rect x="28.9238" y="9.94141" width="56.0385" height="94.0001" fill="white" fill-opacity="0.2"/>
</g>
</svg>
